<svg width="24" height="24" viewBox="0 0 24 24" fill="none" xmlns="http://www.w3.org/2000/svg">
<path fill-rule="evenodd" clip-rule="evenodd" d="M1.56975 7.59409C1.50896 7.64383 1.5 7.68639 1.5 7.70711L1.5 15.2929C1.5 15.3136 1.50895 15.3562 1.56975 15.4059C1.63157 15.4565 1.73405 15.5 1.86424 15.5L22.1358 15.5C22.266 15.5 22.3684 15.4565 22.4303 15.4059C22.491 15.3562 22.5 15.3136 22.5 15.2929L22.5 7.70711C22.5 7.68639 22.491 7.64382 22.4303 7.59408C22.3684 7.5435 22.266 7.5 22.1358 7.5L1.86424 7.5C1.73405 7.5 1.63157 7.5435 1.56975 7.59409ZM0.5 7.70711C0.5 6.95131 1.20928 6.5 1.86424 6.5L22.1358 6.5C22.7907 6.5 23.5 6.9513 23.5 7.70711L23.5 15.2929C23.5 16.0487 22.7907 16.5 22.1358 16.5L1.86424 16.5C1.20928 16.5 0.499999 16.0487 0.499999 15.2929L0.5 7.70711Z" fill="#252525"/>
<path fill-rule="evenodd" clip-rule="evenodd" d="M14.668 7.25734C14.9441 7.25734 15.168 7.4812 15.168 7.75734L15.168 12C15.168 12.2761 14.9441 12.5 14.668 12.5C14.3918 12.5 14.168 12.2761 14.168 12L14.168 7.75734C14.168 7.4812 14.3918 7.25734 14.668 7.25734Z" fill="#252525"/>
<path fill-rule="evenodd" clip-rule="evenodd" d="M9.89453 7.25734C10.1707 7.25734 10.3945 7.4812 10.3945 7.75734L10.3945 11C10.3945 11.2761 10.1707 11.5 9.89453 11.5C9.61839 11.5 9.39453 11.2761 9.39453 11L9.39453 7.75734C9.39453 7.4812 9.61839 7.25734 9.89453 7.25734Z" fill="#252525"/>
<path fill-rule="evenodd" clip-rule="evenodd" d="M5.12109 7.25734C5.39724 7.25734 5.62109 7.4812 5.62109 7.75734L5.62109 12C5.62109 12.2761 5.39724 12.5 5.12109 12.5C4.84495 12.5 4.62109 12.2761 4.62109 12L4.62109 7.75734C4.62109 7.4812 4.84495 7.25734 5.12109 7.25734Z" fill="#252525"/>
<path fill-rule="evenodd" clip-rule="evenodd" d="M19.0156 7.25734C19.2918 7.25734 19.5156 7.4812 19.5156 7.75734L19.5156 11C19.5156 11.2761 19.2918 11.5 19.0156 11.5C18.7395 11.5 18.5156 11.2761 18.5156 11L18.5156 7.75734C18.5156 7.4812 18.7395 7.25734 19.0156 7.25734Z" fill="#252525"/>
</svg>
