<svg xmlns="http://www.w3.org/2000/svg" width="32.002" height="66.002" viewBox="0 0 32.002 66.002">
  <g id="그룹_1040" data-name="그룹 1040" transform="translate(22596.001 20952.002)">
    <path id="빼기_2" data-name="빼기 2" d="M16,32a16,16,0,1,1,11.314-4.686A16,16,0,0,1,16,32Zm1-22V22h4V10Zm-6,0V22h4V10Z" transform="translate(-22596 -20952)" fill="#002b49"/>
    <path id="빼기_2-2" data-name="빼기 2" d="M16,32a16,16,0,1,1,11.314-4.686A16,16,0,0,1,16,32Zm1-22V22h4V10Zm-6,0V22h4V10Z" transform="translate(-22596 -20918)" fill="#fff"/>
  </g>
</svg>
