<svg xmlns="http://www.w3.org/2000/svg" width="24" height="50" viewBox="0 0 24 50">
  <g id="그룹_2357" data-name="그룹 2357" transform="translate(19814 10997)">
    <g id="ico-youtube" transform="translate(-19814 -10997)">
      <rect id="사각형_221" data-name="사각형 221" width="24" height="24" fill="none"/>
      <path id="Icon_awesome-youtube" data-name="Icon awesome-youtube" d="M22.59,6.92a2.764,2.764,0,0,0-1.945-1.958C18.93,4.5,12.05,4.5,12.05,4.5s-6.88,0-8.6.463A2.764,2.764,0,0,0,1.51,6.92a29,29,0,0,0-.46,5.33,29,29,0,0,0,.46,5.33,2.723,2.723,0,0,0,1.945,1.926c1.716.463,8.6.463,8.6.463s6.88,0,8.6-.463A2.723,2.723,0,0,0,22.59,17.58a29,29,0,0,0,.46-5.33,29,29,0,0,0-.46-5.33ZM9.8,15.521V8.979l5.75,3.271Z" transform="translate(-0.05 -0.5)"/>
    </g>
    <g id="ico-youtube-2" data-name="ico-youtube" transform="translate(-19814 -10971)">
      <rect id="사각형_221-2" data-name="사각형 221" width="24" height="24" fill="none"/>
      <path id="Icon_awesome-youtube-2" data-name="Icon awesome-youtube" d="M22.59,6.92a2.764,2.764,0,0,0-1.945-1.958C18.93,4.5,12.05,4.5,12.05,4.5s-6.88,0-8.6.463A2.764,2.764,0,0,0,1.51,6.92a29,29,0,0,0-.46,5.33,29,29,0,0,0,.46,5.33,2.723,2.723,0,0,0,1.945,1.926c1.716.463,8.6.463,8.6.463s6.88,0,8.6-.463A2.723,2.723,0,0,0,22.59,17.58a29,29,0,0,0,.46-5.33,29,29,0,0,0-.46-5.33ZM9.8,15.521V8.979l5.75,3.271Z" transform="translate(-0.05 -0.5)" fill="#fff"/>
    </g>
  </g>
</svg>
