<svg width="667" height="821" viewBox="0 0 667 821" fill="none" xmlns="http://www.w3.org/2000/svg">
<path d="M615.579 2.31445C615.579 14.4337 609.953 25.5892 609.953 37.0125C609.953 43.4839 606.201 49.8332 606.201 56.706C606.201 61.3435 604.787 67.3907 602.867 71.7106C594.934 89.5593 596.575 110.719 588.905 127.978C580.653 146.544 581.303 169.142 566.398 185.704C560.524 192.231 557.2 201.551 552.748 209.565C547.443 219.114 541.372 228.67 536.389 238.637C531.548 248.317 524.628 257.344 521.697 267.604C519.689 274.63 515.517 287.754 510.964 293.445C500.421 306.624 501.807 331.6 486.165 341.376C468.756 352.257 460.207 370.668 446.361 384.514C440.281 390.594 432.155 398.13 429.794 406.396C426.876 416.608 415.231 421.552 409.266 429.007C404.555 434.896 394.054 439.864 388.218 444.533C381.902 449.585 365.762 446.825 357.688 446.825C335.806 446.825 313.925 446.825 292.043 446.825C281.026 446.825 272.063 444.949 261.096 444.949C256.456 444.949 252.511 441.642 247.134 443.178C241.603 444.758 242.349 443.081 237.652 439.323C233.7 436.161 232.378 413.339 229.211 413.065C225.484 412.742 233.401 410.293 233.448 408.819C233.488 407.57 232.622 406.257 233.067 405.089C233.755 403.28 232.772 378.36 232.231 369.164C231.387 354.815 230.756 340.121 227.682 326.287C224.842 313.508 216.065 298.732 202.93 294.979C194.7 292.628 191.193 296.282 187.419 303.075C183.192 310.684 185.682 317.482 190.822 321.594C198.606 327.821 201.282 315.663 201.282 310.49C201.282 300.778 209.963 317.469 211.097 318.729C218.604 327.07 223.204 346.876 223.204 357.881C223.204 372 227.073 386.021 227.073 400.436C227.073 414.384 224.494 429.125 224.494 443.958C224.494 454.168 220.93 472.955 213.676 480.209C209.608 484.277 202.949 490.44 197.413 484.579C192.604 479.486 192.907 467.82 188.064 463.946C180.594 457.97 181.939 432.935 181.939 423.648C181.939 418.5 181.844 407.41 186.13 403.982C188.039 402.454 188.603 397.265 191.61 396.89C193.866 396.608 199.027 393.277 200.781 391.875C215.565 380.047 225.185 402.635 216.255 413.797C213.862 416.789 212.085 428.457 211.598 432.352C211.102 436.321 200.668 441.663 198.058 444.925C188.119 457.349 177.36 451.564 174.166 437.188C172.56 429.963 172.267 423.026 172.267 415.266C172.267 407.622 175.087 401.179 175.491 394.31C177.34 362.872 178.07 331.981 178.07 300.496C178.07 284.076 179.36 267.287 179.36 250.848C179.36 241.013 208.521 234.585 199.204 224.233C192.55 216.84 162.196 216.028 154.715 222.012C152.803 223.542 142.811 237.414 149.7 238.275C154.095 238.824 168.107 237.737 169.652 243.147C172.899 254.511 175.809 272.7 159.694 276.281C151.889 278.015 143.875 275.672 135.873 275.672C134.416 275.672 128.589 271.279 130.5 269.367C132.91 266.957 138.853 267.935 141.963 267.935C157.646 267.935 168.399 272.457 168.399 289.212C168.399 297.059 169.688 304.935 169.688 313.069C169.688 320.361 167.109 327.879 167.109 335.314C167.109 350.147 167.754 365.915 167.754 380.448C167.754 381.955 169.403 390.987 165.318 387.719C162.565 385.517 160.661 382.782 160.661 379.158C160.661 373.592 158.791 362.568 155.145 357.881C146.1 346.252 142.214 332.172 136.16 318.549C132.977 311.389 123.926 306.842 121.939 299.887C119.709 292.081 119.396 284.636 119.396 276.173C119.396 267.599 121.767 257.692 125.055 249.881C128.148 242.537 126.666 232.022 127.133 224.09C127.383 219.836 128.086 207.972 133.581 207.326C140.071 206.562 147.22 201.035 153.891 199.553C163.945 197.319 173.772 196.533 183.515 193.75C189.312 192.093 193.668 186.52 199.706 184.794C210.919 181.591 222.56 216.249 222.56 186.693C222.56 179.032 211.277 175.732 205.796 173.296C195.687 168.803 193.319 175.018 186.954 180.747C182.282 184.951 165.122 185.403 159.372 185.403C150.13 185.403 141.392 190.509 132.614 192.46C120.665 195.115 90.5309 210.328 80.4226 197.332C75.285 190.726 80.3874 184.344 88.7331 186.729C98.0964 189.404 87.3034 198.955 84.7211 201.021C80.9783 204.016 64.1817 203.711 63.9451 207.971C63.4549 216.793 65.3731 224.685 74.763 227.815C87.2182 231.967 83.7583 223.698 83.2883 215.708C82.8794 208.757 104.471 209.905 109.402 209.905C122.881 209.905 117.461 239.855 117.461 250.239C117.461 264.439 112.948 278.208 112.948 293.081C112.948 324.063 115.502 358.776 107.109 388.149C104.431 397.524 101.342 408.528 101.342 418.49C101.342 421.15 95.4772 432.367 93.2465 433.642C82.6179 439.715 87.8017 415.087 87.8017 411.361C87.8017 399.078 87.9569 384.431 94.8943 373.821C100.672 364.984 103.136 350.892 110.512 343.517C121.773 332.256 122.198 345.495 125.987 354.334C132.549 369.645 138.715 411.415 122.942 423.684C106.097 436.786 121.702 376.812 133.903 386.573C139.681 391.195 140.028 403.755 140.028 410.43C140.028 419.467 145.187 428.441 145.187 437.51C145.187 475.194 147.553 496.409 131.613 525.102C128.321 531.028 125.079 536.759 120.754 542.166C118.126 545.451 119.087 553.321 115.244 556.395C111.987 559 111.447 544.797 112.121 554.126C112.262 556.083 110.882 557.855 109.189 558.822C106.588 560.309 107.598 562.63 106.439 562.63C101.032 562.63 95.7024 560.99 91.2086 560.726C84.0963 560.308 67.269 559.835 62.6515 554.063C62.1332 553.415 58.6466 551.559 57.7863 551.313C54.3229 550.323 55.0055 548.47 52.7094 545.919C48.8953 541.681 44.9388 537.22 42.1327 532.169C36.3528 521.765 27.8211 506.169 26.4792 494.093C25.019 480.951 20.7678 466.392 20.7678 453.161C20.7678 440.73 15.0564 429.14 15.0564 416.46C15.0564 404.009 13.6384 388.128 19.8159 377.009C23.3307 370.682 24.5373 363.086 28.383 356.596C31.9193 350.628 36.1502 345.145 39.3828 339.039C47.2805 324.121 63.6316 303.712 81.6896 303.712C87.9055 303.712 110.425 298.15 112.256 304.559C113.976 310.577 121.391 322.402 125.477 327.51C128.096 330.783 131.581 333.508 134.573 336.5C138.006 339.933 138.275 345.411 141.131 348.981C143.137 351.489 144.515 358.395 144.515 361.778C144.515 369.037 150.183 376.379 152.025 382.826C158.535 405.614 167.361 423.573 167.361 447.45C167.361 459.419 162.953 469.039 161.649 480.766C160.482 491.269 158.257 508.576 153.082 517.891C148.742 525.704 146.36 537.478 141.131 544.015C139.272 546.338 129.774 567.416 127.381 562.63" stroke="black" stroke-width="3" stroke-linecap="round"/>
<path d="M127.194 563.014C128.93 563.231 126.585 574.442 125.97 575.794C123.7 580.79 122.712 580.719 117.23 581.562C107.576 583.047 98.4229 589.749 88.7186 590.962C85.8773 591.317 76.4415 593.381 73.9771 591.409C71.4727 589.406 65.6562 588.501 62.518 587.758C61.4354 587.501 54.6537 586.763 54.9551 585.783C55.5928 583.709 52.1174 583.392 54.4586 583.529C61.8259 583.963 69.3306 583.529 76.718 583.529C79.056 583.529 72.0849 582.643 69.9483 581.694C67.2842 580.51 62.5798 580.606 59.6218 580.432C55.1649 580.169 50.3786 577.334 45.6236 577.334C38.7418 577.334 32.6212 575.268 25.4869 575.268C21.5738 575.268 -0.86179 572.651 1.90798 578.883C4.46568 584.637 16.1551 585.926 20.8973 589.209C23.9558 591.326 24.9997 593.672 27.1506 596.438C31.5094 602.042 36.6942 608.855 37.9935 616.001C39.0529 621.827 40.0568 627.634 40.9767 633.613C42.5111 643.587 44.6071 654.655 52.9669 661.495C66.5167 672.581 82.936 676.025 99.8953 678.993C163.245 690.079 224.846 656.848 287.838 656.848C309.623 656.848 331.191 657.942 352.895 659.946C379.395 662.392 406.868 665.617 432.869 671.305C453.222 675.757 474.377 679.043 494.139 685.762C507.454 690.289 520.844 695.363 534.642 698.154C542.868 699.818 553.38 700.638 560.459 705.612C569.781 712.163 578.607 719.167 587.537 726.265C597.052 733.828 604.617 743.495 614.96 750.016C619.286 752.744 624.889 755.563 628.614 759.081C633.468 763.665 640.224 765.393 646.169 768.145C650.68 770.233 655.635 770.623 657.758 775.832C661.488 784.988 664.612 793.224 664.757 803.485C664.794 806.14 662.457 817.825 664.757 818.974" stroke="black" stroke-width="3" stroke-linecap="round"/>
</svg>
