<svg id="Layer_2" data-name="Layer 2" xmlns="http://www.w3.org/2000/svg" viewBox="0 0 865.12 642.16"><defs><style>.cls-1{fill:none;stroke:#000;stroke-miterlimit:10;}</style></defs><path class="cls-1 dd" d="M568,717.35c27.26-1.18,43.49-9.94,51.56-15.45,11.6-7.91,12.4-13.23,12.36-15.68-.08-5.57-4.7-12.2-10-12.12s-9.25,7.15-9.74,12.59c-.57,6.38,3.4,11.41,4.75,13.07,10.2,12.54,31.91,13,75.33,13.78,1.44,0,4.5.08,8.55-.23,4.92-.39,19.23-1.19,19.49-3.81.19-1.93-7.57-2.7-17.35-8.31a66.36,66.36,0,0,1-15.45-12.6c-4-4.17-13.91-15.46-21.14-38.49-6.32-20.12-14-44.47-4.28-73,10.39-30.56,34-46.14,40.63-50.38,31.08-19.86,62.66-15.92,74.14-14.49,12.94,1.61,32,4,48,18.53,11.37,10.32,17.2,23.08,20.44,30.18a115.58,115.58,0,0,1,8.79,29.47,120.51,120.51,0,0,1,1.19,36.83c-1.47,11.48-4.24,33.13-21.15,52.51A82.64,82.64,0,0,1,799,703.56c-11.16,3.72-20,3.59-37.78,3.33-22.28-.33-33.42-.49-45.63-6.41-15.81-7.68-24.38-19.92-30.41-28.52a106.07,106.07,0,0,1-17.35-41.58c-1.95-10.6-5.42-30.93,4-53.94A89.62,89.62,0,0,1,702,538.65c20.88-15,42.08-16.46,53.7-17.11,13.25-.73,31.47-1.73,50.38,9.27,20.1,11.7,28.55,29.74,30.89,34.93,5.63,12.47,6.14,22.56,7.13,42.3,1,19.29,1.45,28.93-2.85,41.35a75.1,75.1,0,0,1-24.95,34.69c-16.26,12.4-32.82,14-48,15.44,0,0-20.79,2-49.19-7.36-3.82-1.26-9.46-3.36-11.88-8.56-2.71-5.82,0-12.5,1-14.73,2.29-5.57,5.75-8.63,8.79-11.64,4.94-4.9,1.36-2.35,16.63-21.15,18.66-23,23.17-25.75,28-27.33,2.18-.7,11.84-3.83,15.92.72,3.87,4.29,1.67,14.26-4.51,18.53-4.27,3-11.7,4-14.5.24-2.32-3.16-.83-8.86,2.38-11.65,4.14-3.59,10.81-2.08,12.83-1.66,42.2,8.7,109,7.09,120.48,10.93a3.9,3.9,0,0,0,2.85,0c2.71-1.27,3.66-7.06,1.9-8.32s-6.56,1.37-7.84,5c-.6,1.71-.18,3,.24,5.71.65,4.33.22,5.4.47,10.45a232,232,0,0,0,4,30.66c.9,4.51,1.67,7.65,0,10.93-1.43,2.79-5.06,6.5-9,5.46-2.95-.77-5.35-4-5-6.65.61-4.54,9-6.18,11.41-6.65,2.92-.58,5.47-.39,10.45,0,8.6.67,12.94,1.06,14.74,3.8,1.41,2.15,1.51,5.45,0,6.89-2.08,2-7,.26-10-1.9s-4.07-4.79-7.12-15.92c-4.59-16.71-4.39-19.64-2.62-21.39s5-2.25,5.94-1.19-.32,4.87-2.61,6.89c-5.26,4.66-15.35.73-17.82-.23A28.2,28.2,0,0,1,866,618s1.17-9.68,7.37-15.68a5.19,5.19,0,0,1,3.32-1.67c1.6-.07,3.57.82,4,2.38.61,2-1.41,4.67-3.09,4.75-2.71.13-5.15-6.53-6.89-11.64-13.58-39.94-31.55-78.62-40.87-119.76-1.11-4.9-3.08-13.93-9.74-16.88-5.54-2.44-10.54,1-23.76-1.42-3.29-.6-5.71-1.3-7.61-3.33-3.42-3.65-4-10.37-1.19-13.07a6.26,6.26,0,0,1,4.28-1.42c9.32-.11,49-2.56,60.36-4.28a22.28,22.28,0,0,1,10.22.71c2.28.73,6.93,2.22,7.12,4.52.46,5.45-24,15.49-33.74,15.21a3.13,3.13,0,0,0-2.37.71c-2.45,2.46.55,12.06,6.89,15.68,1,.6,2.54,1.24,12.35,1.67,5.31.23,8,.35,11.65.23,16.76-.53,17,.64,70.1-.71,11.93-.3,36.77-1,48.71-.71,12.11.28,12.11,1.57,17.11.47,2.07-.45,5-1.33,6.89.24,1.56,1.32,2.06,4.16,1,5.7s-3.91,1.48-5,1.43c-8.72-.39-17.47,2.41-26.14,1.42,0,0-32.73-3.71-109.31.24-8.18.42-8.32,1.5-15.68,1.43-4.13,0-6.67-.41-7.84,1.19-1.44,1.94.41,5.14,2.61,10.69,1.87,4.7,2.86,9.71,4.52,14.49,4.49,13,3.73,12.14,10.69,32.56,9.88,29,11.64,31.31,14.26,39.92,1.53,5,4.95,9.52,5.7,14.73a3.48,3.48,0,0,0,1.19,2.38,3.75,3.75,0,0,0,4-.24c2-1.46,1.77-5,1.66-6.65a184.1,184.1,0,0,1,0-21.39,89.25,89.25,0,0,0-.47-16.63,5.32,5.32,0,0,0-1.19-2.62c-1.46-1.65-4.83-3.07-7.13-1.18a5.1,5.1,0,0,0-.48,6.89c.85.91,1.74.78,6.42,1.18,4.53.39,4.29.57,8.65.84,5.6.36,6.48.1,7.27-.36,1.81-1,3.84-3.54,3.09-5.94-.6-1.92-2.74-3-4.51-3.09a5.48,5.48,0,0,0-5.23,2.85A5.11,5.11,0,0,0,895,557c.49,3.21-.16,6.5,0,9.74.68,13.7,1,20.54,0,25.43a4.6,4.6,0,0,0,.24,3.33c1.49,2.55,5.93,1.61,9.5,2.37,8.39,1.8,12.59,13.18,13.79,16.4,2.62,7.11,4.18,18.9-1.91,25.42-1.67,1.79-5,4.31-6.89,3.33-2.23-1.14-1.52-6.43-1.42-7.13,1.12-8.31,8.15-13.88,9.5-15C940,603,954.91,577.53,973.62,556c36.11-41.54,35.72-48.44,40.16-52.28a7.65,7.65,0,0,0,2.62-4c.74-3.37-1.61-6.53-2.38-7.6-7.55-10.58-4.26-19.82-16.4-43.25-1.64-3.18-3.7-6.85-2.37-10.45,1.78-4.84,8.18-5.53,8.08-8.8-.07-2.28-3.29-4.38-5.94-5-3.87-.88-5.34,1.65-10.7,1.43-.66,0-6.23-.26-6.89-2.61-.48-1.72,1.83-3.92,3.57-5,3-1.85,6.19-1.51,11.4-.95,3.36.35,5.33.56,7.84,1.66,3.4,1.49,4.37,3.11,5.71,2.61,1.9-.71,2.72-5.05,1.42-8.31-1.63-4.09-6.16-5.42-7.13-5.71-4.52-1.33-9.12,0-12.11.95-4,1.21-5.69,2.55-8.08,1.67-1.62-.6-3.3-2.12-3.33-3.81-.05-2.24,2.83-3.82,4.51-4.75,2-1.08,4.19-1.81,9.75-2.37,6.37-.65,9.56-1,11.88,0,2.79,1.16,4.39,3.15,7.6,7.12,2.38,3,4.28,5.3,5.47,9,.8,2.53,2.14,6.73.23,10.22-.57,1.06-.65.6-5,4.75a69,69,0,0,0-5.22,5.47c-1.76,2.07-2.63,3.1-3.09,4.28-.92,2.34-.62,4.56,0,7.36,1.11,5.06,1.66,7.59,3.32,10.93,2,4.09-5.82-10.09,16.16,43.73,22.64,55.4,20.19,44.06,26.14,61.54a214.65,214.65,0,0,0,20,40.4A39.45,39.45,0,0,0,1081,614.93c3.76,2.69,8.12,5.71,13.54,5,.57-.07,7.55-1.1,9.27-6.18s-2.88-10.13-6.18-12.35c-1.31-.89-4.56-3.08-8.08-2.14-4.68,1.25-6.48,7.14-7.12,9.26-1.91,6.27-.55,11.88,1.42,18.3a195.36,195.36,0,0,0,9.51,25c8.08,17.32,12.13,26,15.68,30.42,3.14,3.92,9.89,11.56,13.54,21.86.72,2,1.76,5.39.24,8.32-1.86,3.57-6.54,4.54-9,5-20.11,3.61-35.17,1.18-35.17,1.18-20.11-3.23-30.17-4.85-39.92-10a85.08,85.08,0,0,1-29.94-26.37c-7.56-10.9-10.59-21-15.44-37.31-2.68-9-4.25-14.23-5.23-21.86a104.1,104.1,0,0,1,4.28-45.15,102.27,102.27,0,0,1,18.06-33.27c21-25.33,48.85-32.23,57.26-34a104.48,104.48,0,0,1,55.37,3.81c8.27,2.77,24.1,8.29,38.49,22.81,11.37,11.46,16.4,23,21.87,35.64a133.54,133.54,0,0,1,11.16,39.92c1.31,11.67,2.63,23.52-2.13,37.78a78.51,78.51,0,0,1-14,24.72,77,77,0,0,1-14.74,14.25c-9.92,7.23-18.87,9.76-32.79,13.55-13.19,3.59-22.86,6.22-36.59,6.65-9.57.3-24.09.62-41.11-5.94-6.76-2.6-19.12-7.52-30.18-19.25-11.32-12-15-24.55-19.25-38.73-4.12-13.88-9.18-31-5.7-53.23,1.39-8.91,4.75-28.67,20.67-46.81A88.74,88.74,0,0,1,1053.7,522c20.36-7.63,37.75-5.64,46.58-4.52,9.44,1.2,25.63,3.45,42.06,14.74,20.75,14.26,28.88,34,33.26,44.67a117.5,117.5,0,0,1,8.56,46.58c0,10.66-.12,21-5.47,33a69.75,69.75,0,0,1-15.2,21.39c-4.65,4.69-11,11-21.15,14.26-3.9,1.26-10.7,3.35-16.16,0-.75-.46-4.14-2.54-4.28-5.7-.15-3.52,3.83-6.08,5.47-7.13,1.89-1.22,5.63-3.09,12.12-2.85,7.08.26,12.21,2.85,15.68,4.51,2.59,1.24,10.12,4.07,25.19,9.74,8.1,3,21.06,7.87,34.93,10.22,7,1.19,5.1.19,15.68,1.66,5.8.81,8,1.34,9.74,0,3.84-2.93,1.5-11.8.72-14.49l-.72-13.78c-12.25-3.42-18.11-13.09-16.16-19.25,1.67-5.25,8.81-7.29,10-7.6q.72-4.17,1.43-8.32c-.77-4.2-1-9,1.66-11.17,13-10.35,93,46.31,140.44,122.61,54.81,88.24,54.62,184.39,54.53,225.63a498.62,498.62,0,0,1-4.27,64.16" transform="translate(-567.98 -398.3)"/></svg>