<?xml version="1.0" encoding="utf-8"?>
<!-- Generator: Adobe Illustrator 27.5.0, SVG Export Plug-In . SVG Version: 6.00 Build 0)  -->
<svg version="1.1" id="Layer_1" xmlns="http://www.w3.org/2000/svg" xmlns:xlink="http://www.w3.org/1999/xlink" x="0px" y="0px"
	 viewBox="0 0 400 400" style="enable-background:new 0 0 400 400;" xml:space="preserve">
<rect style="fill:#FFFFFF;" width="400" height="400"/>
<g>
	<g>
		<path style="fill:#99AFBF;" d="M84.063,292.405c-3.154,1.483-6.4,2.509-9.653,3.051c-8.952,1.5-16.272-0.95-19.872-2.564
			l-10.309-5.155l-23.908,11.954l8.48,4.24l56.115,28.057l8.483,4.242l23.908-11.954l-9.337-4.669
			c-6.208-3.301-8.313-6.72-6.26-10.155l0.02-0.033c0.034-0.056,0.069-0.112,0.106-0.17l0.06-0.092l0.065-0.097
			c0.036-0.052,0.127-0.181,0.127-0.181c1.296-1.788,3.416-3.191,4.985-4.062l0.243-0.121l0.069-0.036
			c0.201-0.107,0.387-0.203,0.551-0.285c0.23-0.115,0.418-0.204,0.551-0.265l0.045-0.021l0.317-0.158l-0.013-0.007l8.469-4.235
			l-23.908-11.954L84.063,292.405z"/>
	</g>
	<g>
		<path style="fill:#4C5D6B;" d="M95.466,288.771l-8.48,4.24l-0.887,0.444c-3.736,1.761-7.354,2.821-10.759,3.387
			c-10.622,1.78-19.181-1.252-22.813-2.889l-10.364-5.182l-19.775,9.888l8.467,4.233l0.013,0.007l55.884,27.942l0.013,0.007
			l8.701,4.35l19.775-9.888l-9.367-4.684l-0.14-0.07l0.108,0.053c-8.262-4.393-8.793-8.458-6.927-11.581
			c0.006-0.009,0.011-0.018,0.017-0.028c0.04-0.065,0.08-0.13,0.121-0.195c0.022-0.035,0.045-0.07,0.068-0.105
			c0.025-0.037,0.049-0.074,0.075-0.111c0.042-0.061,0.084-0.121,0.127-0.182c0.006-0.008,0.012-0.017,0.018-0.025
			c1.489-2.055,3.936-3.645,5.616-4.572l0.296-0.148c0.554-0.296,0.998-0.508,1.261-0.629l0.274-0.136c0,0-0.09,0.038-0.247,0.11
			l8.701-4.35L95.466,288.771z"/>
	</g>
	<g>
		<g>
			<polygon style="fill:#C5DAE8;" points="46.03,300.093 51.078,302.616 50.079,303.116 45.031,300.592 			"/>
			<polygon style="fill:#C5DAE8;" points="54.334,304.245 59.382,306.768 58.382,307.268 53.335,304.744 			"/>
			<polygon style="fill:#C5DAE8;" points="62.638,308.397 67.686,310.92 66.686,311.42 61.639,308.896 			"/>
			<polygon style="fill:#C5DAE8;" points="70.942,312.548 75.989,315.072 74.99,315.572 69.943,313.048 			"/>
			<polygon style="fill:#C5DAE8;" points="79.246,316.7 84.293,319.224 83.294,319.724 78.247,317.2 			"/>
			<polygon style="fill:#C5DAE8;" points="87.55,320.852 92.597,323.376 91.598,323.876 86.55,321.352 			"/>
		</g>
	</g>
	<g>
		<g>
			<polygon style="fill:#C5DAE8;" points="37.551,295.853 42.598,298.376 41.599,298.876 36.551,296.352 			"/>
		</g>
		<g>
			<polygon style="fill:#C5DAE8;" points="96.104,325.129 101.151,327.653 100.152,328.153 95.104,325.629 			"/>
		</g>
	</g>
	<g>
		<path style="fill:#C5DAE8;" d="M83.432,313.776l-1.429,0.153c-0.451-1.05-0.601-2.16-0.449-3.297l1.458,0.049
			C82.869,311.75,83.01,312.792,83.432,313.776z M83.467,308.992l-1.433-0.144c0.422-1.048,1.09-2.102,1.986-3.132l1.34,0.291
			C84.506,306.99,83.869,307.994,83.467,308.992z M86.891,304.472l-1.273-0.359c1.056-0.936,2.306-1.843,3.714-2.697l1.127,0.465
			C89.106,302.702,87.905,303.574,86.891,304.472z M92.765,300.605l-1.037-0.515l0.164-0.082l4.384-2.192l1.033,0.517
			L92.765,300.605z M104.336,294.82l-4.547,2.273l-1.033-0.517l4.546-2.273L104.336,294.82z"/>
	</g>
</g>
<g>
	<g>
		<path style="fill:#99AFBF;" d="M289.8,177.428c2.967-1.577,5.019-3.2,6.102-4.826c3-4.476-1.9-8.136-5.128-9.936l-10.309-5.155
			l23.908-11.954l8.48,4.24l56.115,28.057l8.484,4.242l-23.908,11.954l-9.337-4.668c-6.602-3.104-13.44-4.157-20.31-3.13
			l-0.065,0.01c-0.113,0.017-0.225,0.034-0.341,0.053l-0.185,0.03l-0.193,0.033c-0.104,0.018-0.361,0.064-0.361,0.064
			c-3.576,0.648-6.383,1.708-8.123,2.493l-0.242,0.121l-0.072,0.035c-0.215,0.101-0.405,0.193-0.57,0.276
			c-0.23,0.115-0.408,0.209-0.53,0.276l-0.041,0.023l-0.316,0.158l-0.014-0.006l-8.469,4.235l-23.908-11.954L289.8,177.428z"/>
	</g>
	<g>
		<path style="fill:#4C5D6B;" d="M282.531,183.129l8.48-4.24l0.887-0.444c3.521-1.868,5.641-3.677,6.775-5.38
			c3.559-5.311-2.504-9.591-5.778-11.406l-10.364-5.182l19.775-9.887l8.467,4.233l0.013,0.007l55.884,27.942l0.013,0.007l8.701,4.35
			l-19.775,9.887l-9.367-4.684l-0.14-0.07l0.105,0.054c-8.787-4.131-16.917-4.397-23.163-3.464
			c-0.018,0.003-0.037,0.006-0.055,0.008c-0.131,0.02-0.261,0.04-0.39,0.061c-0.07,0.011-0.14,0.023-0.209,0.034
			c-0.074,0.012-0.148,0.025-0.221,0.037c-0.122,0.021-0.243,0.042-0.363,0.064c-0.017,0.003-0.034,0.006-0.051,0.009
			c-4.109,0.745-7.29,1.968-9.144,2.808l-0.295,0.148c-0.591,0.277-1.016,0.499-1.257,0.63l-0.273,0.137c0,0,0.076-0.045,0.22-0.124
			l-8.701,4.35L282.531,183.129z"/>
	</g>
	<g>
		<g>
			<polygon style="fill:#C5DAE8;" points="305.174,158.411 310.222,160.935 311.221,160.435 306.174,157.911 			"/>
			<polygon style="fill:#C5DAE8;" points="313.478,162.563 318.526,165.087 319.525,164.587 314.477,162.063 			"/>
			<polygon style="fill:#C5DAE8;" points="321.782,166.715 326.83,169.239 327.829,168.739 322.781,166.215 			"/>
			<polygon style="fill:#C5DAE8;" points="330.086,170.867 335.134,173.391 336.133,172.891 331.085,170.367 			"/>
			<polygon style="fill:#C5DAE8;" points="338.39,175.019 343.438,177.542 344.437,177.043 339.389,174.519 			"/>
			<polygon style="fill:#C5DAE8;" points="346.694,179.171 351.741,181.695 352.74,181.195 347.693,178.671 			"/>
		</g>
	</g>
	<g>
		<g>
			<polygon style="fill:#C5DAE8;" points="296.695,154.171 301.742,156.695 302.741,156.195 297.694,153.672 			"/>
		</g>
		<g>
			<polygon style="fill:#C5DAE8;" points="355.248,183.448 360.295,185.971 361.294,185.472 356.247,182.948 			"/>
		</g>
	</g>
	<g>
		<path style="fill:#C5DAE8;" d="M326.351,176.902l-0.098-0.729c2.275-0.076,4.494-0.001,6.594,0.224l-0.307,0.714
			C330.573,176.901,328.49,176.83,326.351,176.902z M317.004,178.076l-0.583-0.67c2.06-0.448,4.168-0.782,6.264-0.993l0.288,0.716
			C320.977,177.33,318.969,177.649,317.004,178.076z M308.751,180.626l-0.93-0.564c1.708-0.704,3.523-1.329,5.395-1.857l0.718,0.636
			C312.137,179.349,310.393,179.949,308.751,180.626z M301.655,184.051l-1.033-0.517l4.384-2.192l0.165-0.082l1.029,0.519
			L301.655,184.051z M293.596,187.047l4.546-2.273l1.033,0.517l-4.547,2.273L293.596,187.047z"/>
	</g>
</g>
<g>
	<g>
		<g>
			<path style="fill:#99AFBF;" d="M358.218,393.772l-8.483-4.242l-0.013,0.007l-1.771-0.888c-5.547-2.503-16.761-5.714-29.918,0.637
				l-0.006-0.003l-8.978,4.489l-23.908-11.954l10.31-5.155c5.067-2.823,11.498-8.527-1.829-15.19l-8.48-4.24l23.908-11.954
				l10.309,5.155c3.6,1.614,10.92,4.064,19.872,2.564c3.253-0.542,6.498-1.568,9.653-3.051l9.336-4.668l23.908,11.954l-8.469,4.234
				l0.013,0.007l-0.317,0.158l-0.045,0.021c-0.133,0.061-0.322,0.15-0.551,0.265c-0.164,0.082-0.35,0.177-0.551,0.285l-0.069,0.036
				l-0.243,0.121c-1.569,0.87-3.69,2.274-4.985,4.062c0,0-0.092,0.129-0.127,0.181l-0.065,0.097l-0.06,0.092
				c-0.037,0.058-0.072,0.114-0.106,0.17l-0.02,0.033c-2.053,3.435,0.052,6.854,6.26,10.155l9.337,4.669L358.218,393.772z"/>
			<path style="fill:#4C5D6B;" d="M360.284,346.312l-8.48,4.24l-0.887,0.444c-3.736,1.761-7.354,2.821-10.759,3.388
				c-10.622,1.78-19.181-1.252-22.813-2.889l-10.364-5.182l-19.775,9.887l8.467,4.233l0.013,0.007
				c15.757,7.878,6.291,14.786,1.884,17.23l-0.305,0.153l-1.345,0.672l-8.714,4.357l19.775,9.888l8.467-4.233l1.041-0.521
				l-0.487,0.25c15.59-7.526,29.187-2.81,33.964-0.645l0.013,0.007l0,0l1.811,0.908c-0.001,0-0.077-0.045-0.22-0.124l0.014,0.007
				l8.701,4.35l19.775-9.888l-9.367-4.684l-0.14-0.07l0.108,0.053c-8.263-4.393-8.793-8.458-6.927-11.581
				c0.005-0.009,0.011-0.018,0.017-0.028c0.039-0.065,0.08-0.13,0.121-0.195c0.022-0.035,0.045-0.07,0.068-0.105
				c0.025-0.037,0.049-0.074,0.075-0.11c0.042-0.061,0.084-0.122,0.127-0.182c0.006-0.008,0.012-0.017,0.018-0.025
				c1.489-2.055,3.936-3.645,5.616-4.572l0.296-0.148c0.553-0.296,0.998-0.508,1.261-0.628l0.274-0.136c0,0-0.09,0.038-0.247,0.11
				l8.701-4.35L360.284,346.312z"/>
		</g>
		<g>
			<g>
				<polygon style="fill:#C5DAE8;" points="295.406,385.804 305.846,380.584 307.302,381.312 296.862,386.532 				"/>
				<polygon style="fill:#C5DAE8;" points="290.657,383.429 301.097,378.21 302.553,378.938 292.113,384.157 				"/>
				<polygon style="fill:#C5DAE8;" points="299.887,388.045 310.327,382.825 311.783,383.553 301.344,388.773 				"/>
				<polygon style="fill:#C5DAE8;" points="304.369,390.285 314.809,385.065 316.265,385.793 305.825,391.013 				"/>
			</g>
			<g>
				<polygon style="fill:#C5DAE8;" points="355.75,355.632 366.19,350.412 367.646,351.14 357.206,356.36 				"/>
				<polygon style="fill:#C5DAE8;" points="351.001,353.257 361.441,348.038 362.897,348.766 352.457,353.985 				"/>
				<polygon style="fill:#C5DAE8;" points="360.231,357.873 370.671,352.653 372.127,353.381 361.688,358.601 				"/>
				<polygon style="fill:#C5DAE8;" points="364.713,360.113 375.153,354.893 376.609,355.621 366.169,360.841 				"/>
			</g>
			<g>
				<polygon style="fill:#C5DAE8;" points="301.075,350.412 311.515,355.632 310.059,356.36 299.619,351.14 				"/>
				<polygon style="fill:#C5DAE8;" points="305.825,348.038 316.265,353.257 314.809,353.985 304.369,348.766 				"/>
				<polygon style="fill:#C5DAE8;" points="296.594,352.653 307.034,357.873 305.578,358.601 295.138,353.381 				"/>
				<polygon style="fill:#C5DAE8;" points="292.113,354.893 302.553,360.113 301.097,360.841 290.657,355.621 				"/>
			</g>
			<g>
				<polygon style="fill:#C5DAE8;" points="361.419,380.584 371.859,385.804 370.403,386.532 359.963,381.312 				"/>
				<polygon style="fill:#C5DAE8;" points="366.169,378.21 376.609,383.429 375.153,384.157 364.713,378.938 				"/>
				<polygon style="fill:#C5DAE8;" points="356.938,382.825 367.378,388.045 365.922,388.773 355.482,383.553 				"/>
				<polygon style="fill:#C5DAE8;" points="352.457,385.065 362.897,390.285 361.441,391.013 351.001,385.793 				"/>
			</g>
		</g>
		<g>
			<polygon style="fill:#C5DAE8;" points="309.85,380.917 314.897,378.394 315.896,378.893 310.849,381.417 			"/>
			<polygon style="fill:#C5DAE8;" points="318.154,376.766 323.201,374.242 324.2,374.741 319.153,377.265 			"/>
			<polygon style="fill:#C5DAE8;" points="326.457,372.613 331.505,370.09 332.504,370.589 327.457,373.113 			"/>
			<polygon style="fill:#C5DAE8;" points="334.761,368.462 339.809,365.938 340.808,366.437 335.76,368.961 			"/>
			<polygon style="fill:#C5DAE8;" points="343.065,364.31 348.113,361.786 349.112,362.285 344.064,364.809 			"/>
			<polygon style="fill:#C5DAE8;" points="351.369,360.158 356.417,357.634 357.416,358.134 352.368,360.657 			"/>
		</g>
		<g>
			<polygon style="fill:#C5DAE8;" points="310.849,357.634 315.896,360.158 314.897,360.657 309.85,358.134 			"/>
			<polygon style="fill:#C5DAE8;" points="319.153,361.786 324.2,364.31 323.201,364.809 318.154,362.285 			"/>
			<polygon style="fill:#C5DAE8;" points="327.457,365.938 332.504,368.462 331.505,368.961 326.457,366.437 			"/>
			<polygon style="fill:#C5DAE8;" points="335.76,370.09 340.808,372.613 339.809,373.113 334.761,370.589 			"/>
			<polygon style="fill:#C5DAE8;" points="344.064,374.242 349.112,376.766 348.113,377.265 343.065,374.741 			"/>
			<polygon style="fill:#C5DAE8;" points="352.368,378.394 357.416,380.917 356.417,381.417 351.369,378.893 			"/>
		</g>
	</g>
	<g>
		<polygon style="fill:#99AFBF;" points="92.6,381.796 68.648,393.772 17.874,368.385 41.827,356.409 		"/>
		<polygon style="fill:#4C5D6B;" points="39.76,357.442 90.534,382.829 70.714,392.739 19.941,367.352 		"/>
		<g>
			<polygon style="fill:#C5DAE8;" points="77.602,386.773 72.555,384.249 73.554,383.749 78.601,386.273 			"/>
			<polygon style="fill:#C5DAE8;" points="69.298,382.621 64.251,380.097 65.25,379.597 70.298,382.121 			"/>
			<polygon style="fill:#C5DAE8;" points="60.994,378.469 55.947,375.945 56.946,375.445 61.994,377.969 			"/>
			<polygon style="fill:#C5DAE8;" points="52.691,374.317 47.643,371.793 48.642,371.293 53.69,373.817 			"/>
			<polygon style="fill:#C5DAE8;" points="44.387,370.165 39.339,367.641 40.338,367.142 45.386,369.665 			"/>
			<polygon style="fill:#C5DAE8;" points="36.083,366.013 31.035,363.489 32.035,362.99 37.082,365.513 			"/>
		</g>
	</g>
	<g>
		<polygon style="fill:#99AFBF;" points="166.998,381.796 143.046,393.772 92.272,368.385 116.225,356.409 		"/>
		<polygon style="fill:#4C5D6B;" points="114.158,357.442 164.932,382.829 145.112,392.739 94.339,367.352 		"/>
		<g>
			<polygon style="fill:#C5DAE8;" points="152,386.773 146.953,384.249 147.952,383.749 152.999,386.273 			"/>
			<polygon style="fill:#C5DAE8;" points="143.696,382.621 138.649,380.097 139.648,379.597 144.695,382.121 			"/>
			<polygon style="fill:#C5DAE8;" points="118.785,370.165 113.737,367.641 114.736,367.142 119.784,369.665 			"/>
			<polygon style="fill:#C5DAE8;" points="110.481,366.013 105.433,363.489 106.432,362.99 111.48,365.513 			"/>
		</g>
		<g>
			<polygon style="fill:#C5DAE8;" points="127.25,371.063 137.689,376.283 136.233,377.011 125.794,371.791 			"/>
			<polygon style="fill:#C5DAE8;" points="131.999,368.689 142.439,373.909 140.983,374.637 130.543,369.417 			"/>
			<polygon style="fill:#C5DAE8;" points="122.768,373.304 133.208,378.524 131.752,379.252 121.312,374.032 			"/>
			<polygon style="fill:#C5DAE8;" points="118.287,375.545 128.727,380.764 127.271,381.492 116.831,376.273 			"/>
		</g>
	</g>
	<g>
		<g>
			<path style="fill:#99AFBF;" d="M211.938,389.104c3.154-1.483,6.4-2.509,9.653-3.051c8.952-1.5,16.272,0.95,19.872,2.564
				l10.309,5.155l23.908-11.954l-8.48-4.24l-56.115-28.057l-8.483-4.242l-23.908,11.954l9.337,4.669
				c6.208,3.301,8.313,6.72,6.26,10.155l-0.02,0.033c-0.034,0.057-0.069,0.112-0.106,0.17l-0.06,0.092l-0.065,0.097
				c-0.036,0.052-0.127,0.181-0.127,0.181c-1.296,1.788-3.416,3.191-4.985,4.062l-0.243,0.121l-0.069,0.036
				c-0.201,0.107-0.387,0.203-0.551,0.285c-0.23,0.115-0.418,0.204-0.552,0.265l-0.045,0.021l-0.317,0.158l0.013,0.007l-8.469,4.234
				l23.908,11.954L211.938,389.104z"/>
		</g>
		<g>
			<path style="fill:#4C5D6B;" d="M200.536,392.739l8.48-4.24l0.887-0.444c3.736-1.761,7.354-2.821,10.76-3.388
				c10.622-1.78,19.181,1.252,22.813,2.889l10.364,5.182l19.775-9.888l-8.467-4.233l-0.013-0.007l-55.884-27.942l-0.013-0.007
				l-8.701-4.35l-19.775,9.887l9.367,4.684l0.14,0.07l-0.108-0.053c8.262,4.393,8.793,8.458,6.927,11.581
				c-0.006,0.009-0.011,0.018-0.017,0.028c-0.039,0.065-0.08,0.13-0.121,0.195c-0.022,0.035-0.045,0.07-0.068,0.105
				c-0.025,0.037-0.049,0.074-0.075,0.111c-0.042,0.061-0.084,0.122-0.127,0.182c-0.006,0.008-0.012,0.017-0.018,0.025
				c-1.489,2.055-3.936,3.645-5.616,4.572l-0.296,0.148c-0.553,0.296-0.998,0.508-1.261,0.628l-0.274,0.136
				c0,0,0.09-0.038,0.247-0.11l-8.701,4.35L200.536,392.739z"/>
		</g>
		<g>
			<g>
				<polygon style="fill:#C5DAE8;" points="249.971,381.417 244.924,378.893 245.923,378.394 250.97,380.917 				"/>
				<polygon style="fill:#C5DAE8;" points="241.667,377.265 236.62,374.741 237.619,374.242 242.667,376.765 				"/>
				<polygon style="fill:#C5DAE8;" points="233.363,373.113 228.316,370.589 229.315,370.09 234.363,372.613 				"/>
				<polygon style="fill:#C5DAE8;" points="225.06,368.961 220.012,366.437 221.011,365.938 226.059,368.461 				"/>
				<polygon style="fill:#C5DAE8;" points="216.756,364.809 211.708,362.285 212.707,361.786 217.755,364.31 				"/>
				<polygon style="fill:#C5DAE8;" points="208.452,360.657 203.404,358.134 204.404,357.634 209.451,360.158 				"/>
			</g>
		</g>
		<g>
			<g>
				<polygon style="fill:#C5DAE8;" points="258.451,385.657 253.403,383.133 254.403,382.633 259.45,385.157 				"/>
			</g>
			<g>
				<polygon style="fill:#C5DAE8;" points="199.898,356.38 194.85,353.857 195.85,353.357 200.897,355.881 				"/>
			</g>
		</g>
		<g>
			<path style="fill:#C5DAE8;" d="M212.569,367.734l1.429-0.153c0.45,1.05,0.601,2.16,0.449,3.297l-1.458-0.049
				C213.133,369.759,212.991,368.718,212.569,367.734z M212.534,372.518l1.433,0.144c-0.422,1.048-1.09,2.102-1.986,3.132
				l-1.34-0.291C211.496,374.52,212.133,373.515,212.534,372.518z M209.11,377.037l1.273,0.359
				c-1.056,0.936-2.306,1.843-3.714,2.697l-1.127-0.465C206.896,378.807,208.096,377.936,209.11,377.037z M203.236,380.904
				l1.037,0.515l-0.164,0.082l-4.384,2.192l-1.033-0.517L203.236,380.904z M191.666,386.69l4.546-2.273l1.033,0.517l-4.546,2.273
				L191.666,386.69z"/>
		</g>
	</g>
</g>
<g>
	<g>
		<g>
			<path style="fill:#99AFBF;" d="M82.473,69.595l-8.484-4.242l-0.013,0.007l-1.771-0.888c-5.547-2.503-16.761-5.714-29.918,0.637
				l-0.006-0.003l-8.978,4.489L9.394,57.641l10.309-5.155c5.067-2.823,11.498-8.527-1.829-15.19l-8.48-4.24l23.908-11.954
				l10.309,5.155c3.6,1.614,10.92,4.064,19.872,2.564c3.253-0.542,6.498-1.567,9.653-3.051l9.336-4.668l23.908,11.954l-8.469,4.235
				l0.013,0.007l-0.317,0.158l-0.045,0.021c-0.133,0.061-0.322,0.15-0.551,0.265c-0.165,0.082-0.35,0.178-0.551,0.285l-0.069,0.036
				l-0.243,0.121c-1.569,0.87-3.69,2.274-4.985,4.062c0,0-0.092,0.128-0.127,0.181l-0.065,0.097l-0.06,0.092
				c-0.037,0.058-0.072,0.114-0.106,0.17l-0.02,0.033c-2.053,3.435,0.052,6.854,6.26,10.155l9.337,4.669L82.473,69.595z"/>
			<path style="fill:#4C5D6B;" d="M84.539,22.135l-8.48,4.24l-0.887,0.444c-3.736,1.761-7.354,2.82-10.759,3.388
				c-10.622,1.78-19.181-1.252-22.813-2.889l-10.364-5.182l-19.775,9.888l8.467,4.233l0.013,0.007
				c15.757,7.878,6.291,14.786,1.884,17.23l-0.305,0.153l-1.345,0.672l-8.714,4.357l19.775,9.888l8.467-4.233l1.041-0.521
				l-0.487,0.25c15.59-7.526,29.187-2.81,33.964-0.645l0.013,0.007l0,0l1.811,0.908c0,0-0.077-0.045-0.22-0.124l0.013,0.007
				l8.701,4.35l19.775-9.888l-9.367-4.684l-0.14-0.07l0.108,0.053c-8.263-4.393-8.793-8.458-6.927-11.581
				c0.006-0.009,0.011-0.019,0.017-0.028c0.039-0.065,0.08-0.13,0.121-0.195c0.022-0.035,0.045-0.07,0.068-0.105
				c0.025-0.037,0.049-0.074,0.075-0.111c0.042-0.061,0.084-0.122,0.127-0.182c0.006-0.008,0.012-0.017,0.018-0.025
				c1.489-2.054,3.936-3.645,5.616-4.572l0.296-0.148c0.554-0.296,0.998-0.508,1.26-0.628l0.274-0.136c0,0-0.09,0.038-0.247,0.11
				l8.701-4.35L84.539,22.135z"/>
		</g>
		<g>
			<rect x="50.213" y="57.991" style="fill:#C5DAE8;" width="14.764" height="1.03"/>
			<rect x="50.213" y="54.495" style="fill:#C5DAE8;" width="14.764" height="1.03"/>
			<rect x="50.213" y="50.999" style="fill:#C5DAE8;" width="14.764" height="1.03"/>
			<g>
				
					<rect x="66.286" y="44.319" transform="matrix(-1.836970e-16 1 -1 -1.836970e-16 115.3252 -24.6287)" style="fill:#C5DAE8;" width="7.382" height="2.059"/>
				
					<rect x="72.623" y="44.319" transform="matrix(-1.836970e-16 1 -1 -1.836970e-16 121.6627 -30.9662)" style="fill:#C5DAE8;" width="7.382" height="2.059"/>
				
					<rect x="78.961" y="44.319" transform="matrix(-1.836970e-16 1 -1 -1.836970e-16 128.0002 -37.3037)" style="fill:#C5DAE8;" width="7.382" height="2.059"/>
			</g>
			<g>
				
					<rect x="29.26" y="44.319" transform="matrix(-1.836970e-16 1 -1 -1.836970e-16 78.299 12.3975)" style="fill:#C5DAE8;" width="7.382" height="2.059"/>
				
					<rect x="35.597" y="44.319" transform="matrix(-1.836970e-16 1 -1 -1.836970e-16 84.6366 6.0599)" style="fill:#C5DAE8;" width="7.382" height="2.059"/>
				
					<rect x="41.935" y="44.319" transform="matrix(-1.836970e-16 1 -1 -1.836970e-16 90.9741 -0.2776)" style="fill:#C5DAE8;" width="7.382" height="2.059"/>
			</g>
			<rect x="50.213" y="38.819" style="fill:#C5DAE8;" width="14.764" height="1.03"/>
			<rect x="50.213" y="35.323" style="fill:#C5DAE8;" width="14.764" height="1.03"/>
			<rect x="50.213" y="31.827" style="fill:#C5DAE8;" width="14.764" height="1.03"/>
		</g>
		<g>
			<polygon style="fill:#C5DAE8;" points="19.661,61.627 30.101,56.407 31.557,57.135 21.117,62.355 			"/>
			<polygon style="fill:#C5DAE8;" points="14.912,59.252 25.351,54.032 26.807,54.76 16.368,59.98 			"/>
			<polygon style="fill:#C5DAE8;" points="24.142,63.868 34.582,58.648 36.038,59.376 25.598,64.596 			"/>
			<polygon style="fill:#C5DAE8;" points="28.624,66.108 39.063,60.888 40.519,61.616 30.08,66.836 			"/>
		</g>
		<g>
			<polygon style="fill:#C5DAE8;" points="80.005,31.455 90.445,26.235 91.901,26.963 81.461,32.183 			"/>
			<polygon style="fill:#C5DAE8;" points="75.256,29.08 85.695,23.86 87.151,24.588 76.712,29.808 			"/>
			<polygon style="fill:#C5DAE8;" points="84.486,33.696 94.926,28.476 96.382,29.204 85.942,34.424 			"/>
			<polygon style="fill:#C5DAE8;" points="88.968,35.936 99.407,30.716 100.863,31.444 90.424,36.664 			"/>
		</g>
		<g>
			<polygon style="fill:#C5DAE8;" points="25.33,26.235 35.77,31.455 34.314,32.183 23.874,26.963 			"/>
			<polygon style="fill:#C5DAE8;" points="30.08,23.86 40.519,29.08 39.063,29.808 28.624,24.588 			"/>
			<polygon style="fill:#C5DAE8;" points="20.849,28.476 31.289,33.696 29.833,34.424 19.393,29.204 			"/>
			<polygon style="fill:#C5DAE8;" points="16.368,30.716 26.807,35.936 25.351,36.664 14.912,31.444 			"/>
		</g>
		<g>
			<polygon style="fill:#C5DAE8;" points="85.674,56.407 96.114,61.627 94.658,62.355 84.218,57.135 			"/>
			<polygon style="fill:#C5DAE8;" points="90.424,54.032 100.863,59.252 99.407,59.98 88.968,54.76 			"/>
			<polygon style="fill:#C5DAE8;" points="81.193,58.648 91.633,63.868 90.177,64.596 79.737,59.376 			"/>
			<polygon style="fill:#C5DAE8;" points="76.712,60.888 87.151,66.108 85.695,66.836 75.256,61.616 			"/>
		</g>
		<g>
			<polygon style="fill:#C5DAE8;" points="36.791,55.397 41.062,53.261 42.061,53.761 37.79,55.896 			"/>
			<polygon style="fill:#C5DAE8;" points="43.817,51.884 48.088,49.748 49.088,50.248 44.817,52.383 			"/>
			<polygon style="fill:#C5DAE8;" points="50.844,48.371 55.115,46.235 56.114,46.735 51.843,48.87 			"/>
			<polygon style="fill:#C5DAE8;" points="57.87,44.857 62.141,42.722 63.14,43.222 58.869,45.357 			"/>
			<polygon style="fill:#C5DAE8;" points="64.896,41.344 69.167,39.209 70.167,39.708 65.896,41.844 			"/>
			<polygon style="fill:#C5DAE8;" points="71.923,37.831 76.194,35.696 77.193,36.195 72.922,38.331 			"/>
		</g>
	</g>
	<g>
		<g>
			<polygon style="fill:#99AFBF;" points="368.72,57.619 344.767,69.595 293.993,44.208 317.946,32.232 			"/>
			<polygon style="fill:#4C5D6B;" points="315.88,33.265 366.653,58.652 346.834,68.562 296.06,43.175 			"/>
			<g>
				<polygon style="fill:#C5DAE8;" points="353.722,62.595 348.674,60.072 349.673,59.572 354.721,62.096 				"/>
				<polygon style="fill:#C5DAE8;" points="345.418,58.444 340.37,55.92 341.369,55.42 346.417,57.944 				"/>
				<polygon style="fill:#C5DAE8;" points="320.506,45.988 315.459,43.464 316.458,42.964 321.505,45.488 				"/>
				<polygon style="fill:#C5DAE8;" points="312.202,41.836 307.155,39.312 308.154,38.812 313.201,41.336 				"/>
			</g>
			<g>
				<polygon style="fill:#C5DAE8;" points="328.971,46.886 339.411,52.106 337.955,52.834 327.515,47.614 				"/>
				<polygon style="fill:#C5DAE8;" points="333.721,44.511 344.16,49.731 342.704,50.459 332.265,45.239 				"/>
				<polygon style="fill:#C5DAE8;" points="324.49,49.127 334.93,54.347 333.474,55.075 323.034,49.855 				"/>
				<polygon style="fill:#C5DAE8;" points="320.009,51.367 330.448,56.587 328.992,57.315 318.553,52.095 				"/>
			</g>
		</g>
		<g>
			<polygon style="fill:#99AFBF;" points="390.606,46.675 366.653,58.652 315.88,33.265 339.832,21.289 			"/>
			<polygon style="fill:#4C5D6B;" points="337.766,22.322 388.539,47.709 368.72,57.619 317.946,32.232 			"/>
			<g>
				<polygon style="fill:#C5DAE8;" points="375.608,51.652 370.56,49.129 371.559,48.629 376.607,51.153 				"/>
				<polygon style="fill:#C5DAE8;" points="367.304,47.5 362.257,44.977 363.256,44.477 368.303,47.001 				"/>
				<polygon style="fill:#C5DAE8;" points="342.392,35.045 337.345,32.521 338.344,32.021 343.391,34.545 				"/>
				<polygon style="fill:#C5DAE8;" points="334.088,30.893 329.041,28.369 330.04,27.869 335.088,30.393 				"/>
			</g>
			<g>
				<polygon style="fill:#C5DAE8;" points="350.857,35.943 361.297,41.163 359.841,41.891 349.401,36.671 				"/>
				<polygon style="fill:#C5DAE8;" points="355.607,33.568 366.047,38.788 364.591,39.516 354.151,34.296 				"/>
				<polygon style="fill:#C5DAE8;" points="346.376,38.184 356.816,43.403 355.36,44.132 344.92,38.912 				"/>
				<polygon style="fill:#C5DAE8;" points="341.895,40.424 352.335,45.644 350.879,46.372 340.439,41.152 				"/>
			</g>
		</g>
	</g>
	<g>
		<path style="fill:#99AFBF;" d="M144.973,40.561l0.744-0.902c3.22-3.898,7.898-7.398,13.904-10.401l2.066-1.033l25.732,12.866
			l-2.066,1.033c-5.792,2.896-8.701,6.9-7.981,10.986l0.705,4.003L144.973,40.561z"/>
		<g>
			<polygon style="fill:#99AFBF;" points="187.354,57.619 163.401,69.595 112.627,44.208 136.58,32.232 			"/>
			<polygon style="fill:#4C5D6B;" points="134.513,33.265 185.287,58.652 165.467,68.562 114.694,43.175 			"/>
			<g>
				<polygon style="fill:#C5DAE8;" points="172.355,62.595 167.308,60.072 168.307,59.572 173.355,62.096 				"/>
				<polygon style="fill:#C5DAE8;" points="164.051,58.444 159.004,55.92 160.003,55.42 165.051,57.944 				"/>
				<polygon style="fill:#C5DAE8;" points="155.748,54.292 150.7,51.768 151.699,51.268 156.747,53.792 				"/>
				<polygon style="fill:#C5DAE8;" points="147.444,50.14 142.396,47.616 143.395,47.116 148.443,49.64 				"/>
				<polygon style="fill:#C5DAE8;" points="139.14,45.988 134.092,43.464 135.092,42.964 140.139,45.488 				"/>
				<polygon style="fill:#C5DAE8;" points="130.836,41.836 125.788,39.312 126.788,38.812 131.835,41.336 				"/>
			</g>
		</g>
		<g>
			<path style="fill:#4C5D6B;" d="M183.287,41.091L183.287,41.091l-21.599-10.8h0c-5.867,2.934-10.288,6.316-13.27,9.926
				l26.042,13.021C173.695,48.894,176.636,44.417,183.287,41.091z"/>
		</g>
		<polygon style="fill:#4C5D6B;" points="185.329,40.046 183.263,41.079 161.688,30.292 163.754,29.259 		"/>
		<g>
			<path style="fill:#C5DAE8;" d="M159.462,51.729l-1.429,0.153c-0.45-1.05-0.601-2.16-0.449-3.297l1.458,0.049
				C158.899,49.704,159.041,50.746,159.462,51.729z M159.498,46.946l-1.433-0.144c0.422-1.048,1.09-2.102,1.986-3.132l1.34,0.291
				C160.536,44.944,159.899,45.948,159.498,46.946z M162.921,42.426l-1.273-0.359c1.056-0.936,2.306-1.843,3.714-2.697l1.127,0.465
				C165.136,40.656,163.936,41.528,162.921,42.426z M168.796,38.559l-1.037-0.515l0.164-0.082l4.384-2.192l1.033,0.517
				L168.796,38.559z M175.82,35.047l-1.033-0.517L175.82,35.047z"/>
		</g>
	</g>
	<g>
		<path style="fill:#99AFBF;" d="M227.235,48.371l-1.803,0.372c-7.797,1.61-14.796,3.949-20.802,6.952l-2.066,1.033l25.732,12.866
			l2.066-1.033c5.792-2.896,13.8-4.351,21.971-3.991l8.006,0.352L227.235,48.371z"/>
		<g>
			<polygon style="fill:#99AFBF;" points="261.35,69.562 285.303,57.585 234.529,32.199 210.576,44.175 			"/>
			<polygon style="fill:#4C5D6B;" points="212.643,43.142 263.417,68.528 283.236,58.619 232.462,33.232 			"/>
			<g>
				<polygon style="fill:#C5DAE8;" points="271.304,62.063 266.256,59.539 265.257,60.038 270.305,62.562 				"/>
				<polygon style="fill:#C5DAE8;" points="263,57.911 257.952,55.387 256.953,55.887 262.001,58.41 				"/>
				<polygon style="fill:#C5DAE8;" points="254.696,53.759 249.648,51.235 248.649,51.735 253.697,54.258 				"/>
				<polygon style="fill:#C5DAE8;" points="246.392,49.607 241.345,47.083 240.345,47.583 245.393,50.106 				"/>
				<polygon style="fill:#C5DAE8;" points="238.088,45.455 233.041,42.931 232.042,43.431 237.089,45.954 				"/>
				<polygon style="fill:#C5DAE8;" points="229.784,41.303 224.737,38.779 223.738,39.279 228.785,41.803 				"/>
			</g>
		</g>
		<g>
			<path style="fill:#4C5D6B;" d="M228.296,67.528L228.296,67.528l-21.599-10.799l0,0c5.867-2.934,12.632-5.144,19.851-6.635
				l26.042,13.021C243.901,62.733,234.946,64.203,228.296,67.528z"/>
		</g>
		<polygon style="fill:#4C5D6B;" points="226.205,68.549 228.272,67.516 206.697,56.729 204.63,57.762 		"/>
		<g>
			<path style="fill:#C5DAE8;" d="M243.382,55.406l-0.098-0.729c2.275-0.076,4.494-0.001,6.594,0.224l-0.307,0.715
				C247.604,55.405,245.521,55.334,243.382,55.406z M234.035,56.58l-0.583-0.67c2.06-0.448,4.168-0.782,6.264-0.993l0.288,0.716
				C238.009,55.834,236,56.153,234.035,56.58z M225.782,59.13l-0.93-0.564c1.708-0.704,3.523-1.329,5.395-1.857l0.718,0.636
				C229.168,57.853,227.424,58.453,225.782,59.13z M218.686,62.555l-1.033-0.517l4.384-2.192l0.165-0.082l1.029,0.519
				L218.686,62.555z M215.173,63.278l1.033,0.517L215.173,63.278z"/>
		</g>
	</g>
</g>
<g>
	<path style="fill:#99AFBF;" d="M85.262,181.941l1.803-0.372c7.797-1.61,14.796-3.949,20.802-6.952l2.066-1.033l-25.732-12.866
		l-2.066,1.033c-5.792,2.896-13.8,4.351-21.972,3.991l-8.006-0.353L85.262,181.941z"/>
	<g>
		<polygon style="fill:#99AFBF;" points="51.147,160.751 27.195,172.727 77.968,198.114 101.921,186.137 		"/>
		<polygon style="fill:#4C5D6B;" points="99.854,187.171 49.081,161.784 29.261,171.694 80.035,197.081 		"/>
		<g>
			<polygon style="fill:#C5DAE8;" points="41.194,168.25 46.241,170.773 47.24,170.274 42.193,167.75 			"/>
			<polygon style="fill:#C5DAE8;" points="49.497,172.402 54.545,174.925 55.544,174.426 50.497,171.902 			"/>
			<polygon style="fill:#C5DAE8;" points="57.801,176.553 62.849,179.077 63.848,178.578 58.8,176.054 			"/>
			<polygon style="fill:#C5DAE8;" points="66.105,180.706 71.153,183.229 72.152,182.73 67.104,180.206 			"/>
			<polygon style="fill:#C5DAE8;" points="74.409,184.857 79.456,187.381 80.456,186.882 75.408,184.358 			"/>
			<polygon style="fill:#C5DAE8;" points="82.713,189.009 87.76,191.533 88.759,191.033 83.712,188.51 			"/>
		</g>
	</g>
	<g>
		<path style="fill:#4C5D6B;" d="M84.201,162.784L84.201,162.784l21.599,10.8l0,0c-5.867,2.934-12.632,5.144-19.851,6.635
			l-26.042-13.021C68.596,167.58,77.551,166.109,84.201,162.784z"/>
	</g>
	<polygon style="fill:#4C5D6B;" points="86.292,161.763 84.226,162.796 105.801,173.583 107.867,172.55 	"/>
	<g>
		<path style="fill:#C5DAE8;" d="M69.115,174.906l0.098,0.729c-2.275,0.076-4.494,0.001-6.594-0.224l0.307-0.714
			C64.893,174.907,66.976,174.978,69.115,174.906z M78.463,173.732l0.583,0.67c-2.06,0.448-4.168,0.782-6.264,0.993l-0.288-0.717
			C74.489,174.478,76.497,174.159,78.463,173.732z M86.715,171.182l0.93,0.564c-1.708,0.704-3.523,1.329-5.395,1.857l-0.718-0.636
			C83.329,172.46,85.073,171.859,86.715,171.182z M93.811,167.758l1.033,0.517l-4.384,2.192l-0.165,0.082l-1.029-0.519
			L93.811,167.758z M97.324,167.034l-1.033-0.517L97.324,167.034z"/>
	</g>
</g>
<g>
	<g>
		<g>
			<polygon style="fill:#99AFBF;" points="273.665,133.115 249.712,145.091 198.939,119.704 222.891,107.728 			"/>
			<polygon style="fill:#4C5D6B;" points="220.825,108.761 271.598,134.148 251.779,144.058 201.005,118.671 			"/>
			<g>
				<polygon style="fill:#C5DAE8;" points="258.667,138.092 253.619,135.568 254.619,135.068 259.666,137.592 				"/>
				<polygon style="fill:#C5DAE8;" points="250.363,133.939 245.315,131.416 246.315,130.916 251.362,133.44 				"/>
				<polygon style="fill:#C5DAE8;" points="242.059,129.788 237.012,127.264 238.011,126.764 243.058,129.288 				"/>
				<polygon style="fill:#C5DAE8;" points="233.755,125.636 228.708,123.112 229.707,122.612 234.754,125.136 				"/>
				<polygon style="fill:#C5DAE8;" points="225.451,121.484 220.404,118.96 221.403,118.46 226.451,120.984 				"/>
				<polygon style="fill:#C5DAE8;" points="217.147,117.332 212.1,114.808 213.099,114.309 218.147,116.832 				"/>
			</g>
		</g>
		<g>
			<polygon style="fill:#99AFBF;" points="295.551,122.172 271.598,134.148 220.825,108.761 244.777,96.785 			"/>
			<polygon style="fill:#4C5D6B;" points="242.711,97.818 293.485,123.205 273.665,133.115 222.891,107.728 			"/>
			<g>
				<polygon style="fill:#C5DAE8;" points="280.553,127.148 275.505,124.625 276.505,124.125 281.552,126.649 				"/>
				<polygon style="fill:#C5DAE8;" points="272.249,122.996 267.202,120.473 268.201,119.973 273.248,122.497 				"/>
				<polygon style="fill:#C5DAE8;" points="263.945,118.844 258.898,116.321 259.897,115.821 264.944,118.345 				"/>
				<polygon style="fill:#C5DAE8;" points="255.641,114.693 250.594,112.169 251.593,111.669 256.641,114.193 				"/>
				<polygon style="fill:#C5DAE8;" points="247.337,110.541 242.29,108.017 243.289,107.517 248.337,110.041 				"/>
				<polygon style="fill:#C5DAE8;" points="239.034,106.389 233.986,103.865 234.985,103.365 240.033,105.889 				"/>
			</g>
		</g>
	</g>
	<g>
		<g>
			<path style="fill:#99AFBF;" d="M72.945,101.266c-3.154,1.483-6.4,2.509-9.653,3.051c-8.952,1.5-16.273-0.95-19.872-2.564
				l-10.309-5.155L9.203,108.552l8.48,4.24l56.115,28.057l8.483,4.242l23.908-11.954l-9.337-4.669
				c-6.208-3.301-8.313-6.72-6.26-10.155l0.02-0.033c0.034-0.057,0.069-0.113,0.106-0.17l0.06-0.092l0.065-0.097
				c0.036-0.052,0.127-0.181,0.127-0.181c1.296-1.788,3.416-3.191,4.985-4.062l0.243-0.121l0.069-0.036
				c0.201-0.107,0.387-0.203,0.551-0.285c0.23-0.115,0.418-0.204,0.551-0.265l0.045-0.021l0.317-0.158l-0.013-0.007l8.469-4.235
				L82.281,96.598L72.945,101.266z"/>
		</g>
		<g>
			<path style="fill:#4C5D6B;" d="M84.348,97.631l-8.48,4.24l-0.887,0.444c-3.736,1.761-7.354,2.821-10.759,3.388
				c-10.622,1.78-19.182-1.252-22.813-2.889l-10.364-5.182l-19.775,9.888l8.467,4.233l0.013,0.007l55.884,27.942l0.014,0.007
				l8.701,4.35l19.775-9.887l-9.367-4.684l-0.14-0.07l0.108,0.053c-8.262-4.393-8.793-8.459-6.927-11.581
				c0.006-0.009,0.011-0.019,0.017-0.028c0.039-0.065,0.08-0.13,0.121-0.195c0.022-0.035,0.045-0.07,0.068-0.105
				c0.025-0.037,0.049-0.074,0.075-0.111c0.042-0.061,0.084-0.121,0.127-0.182c0.006-0.009,0.012-0.017,0.018-0.025
				c1.489-2.054,3.936-3.645,5.616-4.572l0.296-0.148c0.553-0.296,0.998-0.508,1.261-0.629l0.274-0.136c0,0-0.09,0.038-0.247,0.11
				l8.701-4.35L84.348,97.631z"/>
		</g>
		<g>
			<g>
				<g>
					<polygon style="fill:#C5DAE8;" points="79.813,106.951 90.253,101.731 91.709,102.459 81.27,107.679 					"/>
					<polygon style="fill:#C5DAE8;" points="75.064,104.576 85.504,99.356 86.96,100.084 76.52,105.304 					"/>
					<polygon style="fill:#C5DAE8;" points="84.295,109.192 94.735,103.972 96.191,104.7 85.751,109.92 					"/>
					<polygon style="fill:#C5DAE8;" points="88.776,111.432 99.216,106.212 100.672,106.94 90.232,112.16 					"/>
				</g>
				<g>
					<polygon style="fill:#C5DAE8;" points="25.139,101.731 35.578,106.951 34.123,107.679 23.683,102.459 					"/>
					<polygon style="fill:#C5DAE8;" points="29.888,99.356 40.328,104.576 38.872,105.304 28.432,100.084 					"/>
					<polygon style="fill:#C5DAE8;" points="20.657,103.972 31.097,109.192 29.641,109.92 19.201,104.7 					"/>
					<polygon style="fill:#C5DAE8;" points="16.176,106.212 26.616,111.432 25.16,112.16 14.72,106.94 					"/>
				</g>
				<g>
					<polygon style="fill:#C5DAE8;" points="85.483,131.903 95.923,137.123 94.466,137.851 84.027,132.631 					"/>
					<polygon style="fill:#C5DAE8;" points="90.232,129.528 100.672,134.748 99.216,135.476 88.776,130.256 					"/>
					<polygon style="fill:#C5DAE8;" points="81.001,134.144 91.441,139.364 89.985,140.092 79.545,134.872 					"/>
					<polygon style="fill:#C5DAE8;" points="76.52,136.384 86.96,141.604 85.504,142.332 75.064,137.112 					"/>
				</g>
			</g>
			<g>
				<polygon style="fill:#C5DAE8;" points="34.912,108.953 39.96,111.477 38.96,111.976 33.913,109.452 				"/>
				<polygon style="fill:#C5DAE8;" points="43.216,113.105 48.264,115.629 47.264,116.128 42.217,113.604 				"/>
				<polygon style="fill:#C5DAE8;" points="51.52,117.257 56.567,119.78 55.568,120.28 50.521,117.756 				"/>
				<polygon style="fill:#C5DAE8;" points="59.824,121.409 64.871,123.932 63.872,124.432 58.825,121.908 				"/>
				<polygon style="fill:#C5DAE8;" points="68.128,125.561 73.175,128.084 72.176,128.584 67.129,126.06 				"/>
				<polygon style="fill:#C5DAE8;" points="76.432,129.712 81.479,132.236 80.48,132.736 75.432,130.212 				"/>
			</g>
		</g>
		<g>
			<path style="fill:#C5DAE8;" d="M72.314,122.636l-1.429,0.153c-0.451-1.05-0.601-2.16-0.449-3.297l1.458,0.049
				C71.751,120.611,71.892,121.652,72.314,122.636z M72.349,117.852l-1.433-0.144c0.422-1.048,1.09-2.102,1.986-3.132l1.34,0.291
				C73.388,115.85,72.751,116.854,72.349,117.852z M75.773,113.333l-1.273-0.359c1.056-0.936,2.306-1.843,3.714-2.697l1.127,0.465
				C77.988,111.562,76.787,112.434,75.773,113.333z"/>
		</g>
	</g>
	<g>
		<g>
			<path style="fill:#99AFBF;" d="M381.461,113.22c-2.967,1.577-5.019,3.2-6.102,4.826c-3,4.476,1.9,8.136,5.128,9.936l10.309,5.155
				l-23.908,11.954l-8.48-4.24l-56.115-28.058l-8.484-4.242l23.908-11.954l9.337,4.668c6.602,3.104,13.44,4.157,20.31,3.13
				l0.065-0.01c0.113-0.017,0.225-0.034,0.341-0.053l0.185-0.03l0.193-0.033c0.104-0.018,0.361-0.064,0.361-0.064
				c3.576-0.648,6.383-1.708,8.123-2.493l0.242-0.121l0.072-0.035c0.215-0.101,0.405-0.193,0.57-0.275
				c0.23-0.115,0.408-0.209,0.53-0.276l0.041-0.023l0.316-0.158l0.014,0.006l8.469-4.234l23.908,11.954L381.461,113.22z"/>
		</g>
		<g>
			<path style="fill:#4C5D6B;" d="M388.731,107.519l-8.48,4.24l-0.887,0.444c-3.521,1.868-5.641,3.677-6.775,5.38
				c-3.559,5.311,2.504,9.591,5.778,11.406l10.364,5.182l-19.775,9.887l-8.467-4.233l-0.014-0.007l-55.884-27.942l-0.013-0.007
				l-8.701-4.35l19.775-9.888l9.367,4.684l0.14,0.07l-0.105-0.054c8.787,4.131,16.917,4.397,23.163,3.463
				c0.018-0.003,0.037-0.006,0.055-0.008c0.131-0.02,0.261-0.04,0.39-0.061c0.07-0.011,0.14-0.022,0.209-0.034
				c0.074-0.012,0.148-0.025,0.221-0.037c0.122-0.021,0.243-0.042,0.363-0.064c0.017-0.003,0.034-0.006,0.051-0.009
				c4.109-0.744,7.29-1.968,9.144-2.808l0.295-0.148c0.591-0.277,1.016-0.499,1.257-0.63l0.273-0.137c0,0-0.076,0.045-0.22,0.124
				l8.701-4.35L388.731,107.519z"/>
		</g>
		<g>
			<g>
				<polygon style="fill:#C5DAE8;" points="366.087,132.236 361.039,129.712 360.04,130.212 365.088,132.736 				"/>
				<polygon style="fill:#C5DAE8;" points="357.783,128.084 352.736,125.561 351.736,126.06 356.784,128.584 				"/>
				<polygon style="fill:#C5DAE8;" points="349.479,123.932 344.432,121.409 343.432,121.908 348.48,124.432 				"/>
				<polygon style="fill:#C5DAE8;" points="341.175,119.78 336.128,117.257 335.129,117.756 340.176,120.28 				"/>
				<polygon style="fill:#C5DAE8;" points="332.871,115.629 327.824,113.105 326.825,113.604 331.872,116.128 				"/>
				<polygon style="fill:#C5DAE8;" points="324.568,111.477 319.52,108.953 318.521,109.452 323.568,111.976 				"/>
			</g>
		</g>
		<g>
			<g>
				<polygon style="fill:#C5DAE8;" points="374.566,136.476 369.519,133.952 368.52,134.452 373.567,136.976 				"/>
			</g>
			<g>
				<polygon style="fill:#C5DAE8;" points="316.013,107.2 310.966,104.676 309.967,105.175 315.014,107.699 				"/>
			</g>
		</g>
		<g>
			<path style="fill:#C5DAE8;" d="M344.911,113.745l0.098,0.729c-2.275,0.076-4.494,0.001-6.594-0.224l0.307-0.715
				C340.688,113.746,342.771,113.817,344.911,113.745z M354.258,112.571l0.583,0.67c-2.06,0.448-4.168,0.782-6.264,0.993
				l-0.288-0.716C350.284,113.317,352.292,112.998,354.258,112.571z M362.51,110.021l0.93,0.564
				c-1.708,0.704-3.523,1.329-5.395,1.857l-0.718-0.636C359.124,111.299,360.868,110.698,362.51,110.021z M369.606,106.597
				l1.033,0.517l-4.384,2.192l-0.165,0.082l-1.029-0.519L369.606,106.597z M377.666,103.6l-4.546,2.273l-1.033-0.517l4.547-2.273
				L377.666,103.6z"/>
		</g>
	</g>
	<g>
		<path style="fill:#99AFBF;" d="M164.75,132.755l-0.744,0.901c-3.22,3.898-7.898,7.398-13.904,10.401l-2.067,1.033l-25.732-12.866
			l2.067-1.033c5.792-2.896,8.701-6.9,7.981-10.986l-0.705-4.003L164.75,132.755z"/>
		<g>
			<polygon style="fill:#99AFBF;" points="122.369,115.698 146.322,103.721 197.096,129.108 173.143,141.085 			"/>
			<polygon style="fill:#4C5D6B;" points="175.21,140.051 124.436,114.664 144.256,104.755 195.029,130.141 			"/>
			<g>
				<polygon style="fill:#C5DAE8;" points="137.368,110.721 142.415,113.245 141.416,113.744 136.368,111.22 				"/>
				<polygon style="fill:#C5DAE8;" points="145.671,114.873 150.719,117.397 149.72,117.896 144.672,115.372 				"/>
				<polygon style="fill:#C5DAE8;" points="153.975,119.025 159.023,121.549 158.024,122.048 152.976,119.524 				"/>
				<polygon style="fill:#C5DAE8;" points="162.279,123.177 167.327,125.7 166.327,126.2 161.28,123.676 				"/>
				<polygon style="fill:#C5DAE8;" points="170.583,127.329 175.63,129.852 174.631,130.352 169.584,127.828 				"/>
				<polygon style="fill:#C5DAE8;" points="178.887,131.481 183.934,134.004 182.935,134.504 177.888,131.98 				"/>
			</g>
		</g>
		<g>
			<path style="fill:#4C5D6B;" d="M126.436,132.225L126.436,132.225l21.599,10.8l0,0c5.867-2.934,10.288-6.316,13.27-9.925
				l-26.042-13.021C136.027,124.422,133.087,128.9,126.436,132.225z"/>
		</g>
		<polygon style="fill:#4C5D6B;" points="124.394,133.27 126.46,132.237 148.035,143.024 145.969,144.058 		"/>
		<g>
			<path style="fill:#C5DAE8;" d="M150.26,121.587l1.429-0.153c0.451,1.05,0.602,2.16,0.449,3.297l-1.458-0.049
				C150.824,123.612,150.682,122.571,150.26,121.587z M150.225,126.371l1.433,0.144c-0.422,1.048-1.09,2.102-1.986,3.132
				l-1.34-0.291C149.187,128.373,149.824,127.368,150.225,126.371z M146.801,130.89l1.273,0.359
				c-1.056,0.936-2.306,1.843-3.714,2.697l-1.127-0.465C144.587,132.661,145.787,131.789,146.801,130.89z M140.927,134.757
				l1.037,0.515l-0.164,0.082l-4.384,2.192l-1.033-0.517L140.927,134.757z M133.903,138.27l1.033,0.517L133.903,138.27z"/>
		</g>
	</g>
</g>
<g>
	<g>
		<g>
			<path style="fill:#99AFBF;" d="M251.482,260.648c-6.828,3.414-14.791,6.058-23.667,7.857c-8.572,1.738-17.628,2.619-26.918,2.619
				c-9.29,0-18.347-0.881-26.918-2.619c-8.876-1.8-16.838-4.443-23.666-7.857c-6.828-3.414-12.115-7.395-15.714-11.833
				c-3.476-4.286-5.238-8.814-5.238-13.459c0-4.645,1.762-9.173,5.238-13.459c3.599-4.438,8.886-8.419,15.715-11.833
				c6.828-3.414,14.791-6.058,23.666-7.857c8.572-1.738,17.628-2.619,26.918-2.619c9.29,0,18.346,0.881,26.918,2.619
				c8.876,1.8,16.838,4.443,23.666,7.857c6.828,3.414,12.115,7.395,15.715,11.833c3.476,4.286,5.238,8.814,5.238,13.459
				c0,4.645-1.762,9.173-5.238,13.459C263.597,253.252,258.31,257.234,251.482,260.648z M172.175,220.994
				c-15.838,7.919-15.838,20.804,0,28.723c15.838,7.919,41.608,7.919,57.445,0c15.838-7.919,15.838-20.804,0-28.723
				C213.782,213.075,188.012,213.075,172.175,220.994z"/>
			<path style="fill:#4C5D6B;" d="M152.131,210.972c-26.933,13.467-26.933,35.3,0,48.766s70.6,13.466,97.533,0s26.933-35.3,0-48.766
				S179.064,197.505,152.131,210.972z M231.438,250.626c-16.867,8.434-44.215,8.434-61.082,0c-16.867-8.434-16.867-22.107,0-30.541
				c16.867-8.434,44.215-8.434,61.082,0C248.306,228.518,248.306,242.192,231.438,250.626z"/>
			<g>
				<path style="fill:#C5DAE8;" d="M260.383,235.616c0,0.002,0,0.003,0,0.005c0,0.561-0.032,1.128-0.096,1.686l-2.334-0.067
					c0.061-0.536,0.092-1.08,0.092-1.619c0-0.001,0-0.003,0-0.004c0-0.888-0.085-1.785-0.252-2.665l2.328-0.11
					C260.295,233.757,260.383,234.691,260.383,235.616z M259.737,239.974c-0.442,1.472-1.116,2.937-2.004,4.354l-2.231-0.349
					c0.852-1.36,1.499-2.766,1.923-4.179L259.737,239.974z M259.37,230.184l-2.298,0.217c-0.53-1.403-1.283-2.796-2.238-4.139
					l2.203-0.392C258.032,227.271,258.817,228.723,259.37,230.184z M255.892,246.849c-1.147,1.371-2.519,2.709-4.078,3.978
					l-1.992-0.612c1.496-1.218,2.812-2.503,3.914-3.818L255.892,246.849z M255.008,223.388l-2.121,0.492
					c-1.199-1.293-2.611-2.55-4.195-3.738l1.945-0.649C252.287,220.73,253.758,222.041,255.008,223.388z M248.799,253.047
					c-1.781,1.189-3.762,2.32-5.887,3.362l-1.637-0.835c2.04-1,3.942-2.086,5.652-3.227L248.799,253.047z M247.458,217.332
					l-1.818,0.735c-1.795-1.11-3.776-2.159-5.888-3.119l1.573-0.865C243.525,215.083,245.588,216.176,247.458,217.332z
					 M238.913,258.196c-2.307,0.939-4.775,1.797-7.337,2.548l-1.183-1.008c2.46-0.721,4.829-1.544,7.044-2.446L238.913,258.196z
					 M237.195,212.371l-1.408,0.933c-2.282-0.861-4.714-1.639-7.226-2.313l1.106-1.03
					C232.284,210.663,234.817,211.474,237.195,212.371z M226.827,261.993c-2.695,0.631-5.509,1.161-8.363,1.576l-0.653-1.122
					c2.739-0.398,5.438-0.907,8.024-1.513L226.827,261.993z M224.826,208.803l-0.911,1.077c-2.63-0.556-5.368-1.014-8.139-1.36
					l0.567-1.134C219.232,207.746,222.085,208.223,224.826,208.803z M213.248,264.198c-2.911,0.28-5.897,0.45-8.877,0.506
					l-0.087-1.168c2.861-0.053,5.728-0.216,8.522-0.485L213.248,264.198z M211.084,206.856l-0.355,1.156
					c-2.81-0.216-5.688-0.325-8.553-0.325c-2.551,0-5.117,0.087-7.624,0.258l-0.316-1.158c2.612-0.178,5.283-0.269,7.94-0.269
					C205.16,206.517,208.157,206.631,211.084,206.856z M199.133,263.514l-0.125,1.167c-2.977-0.08-5.957-0.275-8.859-0.58
					l0.481-1.144C193.414,263.25,196.275,263.437,199.133,263.514z M189.488,208.409c-2.779,0.323-5.531,0.757-8.178,1.29
					l-0.874-1.084c2.759-0.556,5.627-1.008,8.523-1.344L189.488,208.409z M185.645,262.312l-0.691,1.117
					c-2.84-0.439-5.637-0.994-8.313-1.648l1.027-1.05C180.235,261.358,182.919,261.89,185.645,262.312z M176.629,210.771
					c-2.534,0.653-4.99,1.41-7.298,2.25l-1.376-0.945c2.405-0.875,4.964-1.664,7.604-2.344L176.629,210.771z M173.15,259.494
					l-1.216,0.998c-2.537-0.773-4.978-1.651-7.254-2.611l1.507-0.894C168.372,257.909,170.715,258.752,173.15,259.494z
					 M165.31,214.63c-2.145,0.943-4.162,1.976-5.993,3.069l-1.793-0.75c1.908-1.139,4.008-2.215,6.242-3.197L165.31,214.63z
					 M162.405,255.239l-1.664,0.821c-2.09-1.059-4.031-2.206-5.771-3.41l1.895-0.685
					C158.535,253.121,160.399,254.222,162.405,255.239z M156.196,219.748c-1.626,1.175-3.081,2.421-4.325,3.705l-2.104-0.51
					c1.296-1.337,2.813-2.636,4.507-3.861L156.196,219.748z M154.043,249.811l-2.013,0.595c-1.514-1.281-2.839-2.629-3.939-4.008
					l2.172-0.433C151.318,247.288,152.59,248.582,154.043,249.811z M149.842,225.82c-1.002,1.337-1.803,2.725-2.38,4.123
					l-2.29-0.236c0.601-1.457,1.436-2.903,2.48-4.297L149.842,225.82z M148.579,243.532l-2.243,0.331
					c-0.839-1.424-1.464-2.895-1.857-4.371l2.318-0.154C147.174,240.754,147.774,242.165,148.579,243.532z M146.655,232.486
					c-0.316,1.413-0.417,2.87-0.301,4.287l-2.336,0.047c-0.119-1.475-0.015-2.993,0.313-4.464L146.655,232.486z"/>
			</g>
			
				<rect x="200.925" y="205.273" transform="matrix(6.123234e-17 -1 1 6.123234e-17 -3.8032 409.5573)" style="fill:#4C5D6B;" width="3.904" height="2.814"/>
		</g>
		<g>
			<polygon style="fill:#99AFBF;" points="144.035,275.763 120.083,263.786 141.261,253.197 165.214,265.173 			"/>
			<polygon style="fill:#4C5D6B;" points="167.356,262.036 141.969,274.729 122.149,264.819 147.536,252.126 			"/>
			<g>
				<polygon style="fill:#C5DAE8;" points="133.606,268.501 138.654,265.977 139.653,266.477 134.606,269.001 				"/>
				<polygon style="fill:#C5DAE8;" points="141.91,264.349 146.958,261.826 147.957,262.325 142.91,264.849 				"/>
				<polygon style="fill:#C5DAE8;" points="150.214,260.197 155.262,257.674 156.261,258.173 151.213,260.697 				"/>
			</g>
		</g>
		<g>
			<polygon style="fill:#99AFBF;" points="258.54,194.558 282.493,206.534 261.311,217.125 237.358,205.148 			"/>
			<polygon style="fill:#4C5D6B;" points="235.216,208.286 260.607,195.591 280.426,205.501 255.036,218.196 			"/>
			<g>
				<polygon style="fill:#C5DAE8;" points="268.966,201.821 263.918,204.344 262.919,203.845 267.966,201.321 				"/>
				<polygon style="fill:#C5DAE8;" points="260.662,205.973 255.614,208.496 254.615,207.997 259.663,205.473 				"/>
				<polygon style="fill:#C5DAE8;" points="252.358,210.125 247.31,212.648 246.311,212.149 251.359,209.625 				"/>
			</g>
		</g>
		<g>
			<polygon style="fill:#99AFBF;" points="282.142,264.001 258.19,275.978 237.011,265.388 260.964,253.412 			"/>
			<polygon style="fill:#4C5D6B;" points="254.689,252.341 280.076,265.035 260.256,274.944 234.869,262.251 			"/>
			<g>
				<polygon style="fill:#C5DAE8;" points="267.62,269.216 262.572,266.692 263.571,266.193 268.619,268.716 				"/>
				<polygon style="fill:#C5DAE8;" points="259.316,265.064 254.268,262.54 255.267,262.041 260.315,264.564 				"/>
				<polygon style="fill:#C5DAE8;" points="251.012,260.912 245.964,258.388 246.963,257.889 252.011,260.412 				"/>
			</g>
		</g>
		<g>
			<polygon style="fill:#99AFBF;" points="117.507,205.637 141.46,193.66 163.897,204.879 139.944,216.855 			"/>
			<polygon style="fill:#4C5D6B;" points="146.219,217.926 119.574,204.603 139.393,194.693 166.039,208.016 			"/>
			<g>
				<polygon style="fill:#C5DAE8;" points="133.289,201.051 138.336,203.575 137.337,204.075 132.29,201.551 				"/>
				<polygon style="fill:#C5DAE8;" points="141.593,205.203 146.64,207.727 145.641,208.227 140.593,205.703 				"/>
				<polygon style="fill:#C5DAE8;" points="149.897,209.355 154.944,211.879 153.945,212.378 148.897,209.855 				"/>
			</g>
		</g>
	</g>
	<g>
		<path style="fill:#99AFBF;" d="M228.723,185.518l1.818-0.909c-16.867-8.434-44.214-8.434-61.082,0l1.818,0.909
			C187.115,177.599,212.885,177.599,228.723,185.518z"/>
		<path style="fill:#99AFBF;" d="M248.766,175.496l1.818-0.909c-6.828-3.414-14.791-6.058-23.666-7.857
			c-8.572-1.738-17.628-2.619-26.919-2.619c-9.29,0-18.347,0.881-26.918,2.619c-8.876,1.8-16.838,4.443-23.666,7.857l1.818,0.909
			C178.167,162.029,221.833,162.029,248.766,175.496z"/>
		<path style="fill:#4C5D6B;" d="M230.541,184.609l18.226-9.113c-26.933-13.467-70.6-13.467-97.533,0l18.225,9.113
			C186.326,176.175,213.674,176.175,230.541,184.609z"/>
		<path style="fill:#C5DAE8;" d="M162.156,177.582c2.251-0.973,4.668-1.866,7.185-2.654l1.242,0.99
			c-2.416,0.757-4.736,1.614-6.897,2.548L162.156,177.582z"/>
		<path style="fill:#C5DAE8;" d="M174.014,173.61c2.657-0.67,5.438-1.242,8.267-1.698l0.719,1.112
			c-2.714,0.438-5.383,0.987-7.932,1.63L174.014,173.61z"/>
		<path style="fill:#C5DAE8;" d="M187.457,171.206c2.893-0.323,5.868-0.537,8.843-0.636l0.155,1.166
			c-2.857,0.095-5.713,0.3-8.49,0.61L187.457,171.206z"/>
		<path style="fill:#C5DAE8;" d="M201.607,171.682l0.057-1.169c2.98,0.036,5.971,0.187,8.89,0.449l-0.413,1.151
			C207.339,171.862,204.468,171.717,201.607,171.682z"/>
		<path style="fill:#C5DAE8;" d="M215.16,172.686l0.625-1.126c2.865,0.397,5.693,0.91,8.406,1.525l-0.965,1.065
			C220.623,173.559,217.908,173.067,215.16,172.686z"/>
		<path style="fill:#C5DAE8;" d="M227.814,175.319l1.157-1.016c2.581,0.735,5.072,1.577,7.405,2.503l-1.454,0.916
			C232.683,176.833,230.292,176.025,227.814,175.319z"/>
	</g>
	<g>
		<path style="fill:#99AFBF;" d="M284.932,250.864l1.818,0.909c16.867-8.434,16.867-22.107,0-30.541l-1.818,0.909
			C300.769,230.06,300.769,242.945,284.932,250.864z"/>
		<path style="fill:#99AFBF;" d="M304.975,260.886l1.818,0.909c6.828-3.414,12.115-7.395,15.715-11.833
			c3.476-4.286,5.238-8.814,5.238-13.459c0-4.645-1.762-9.173-5.238-13.459c-3.599-4.438-8.886-8.419-15.714-11.833l-1.818,0.909
			C331.908,225.586,331.908,247.419,304.975,260.886z"/>
		<path style="fill:#4C5D6B;" d="M286.75,251.773l18.226,9.113c26.933-13.466,26.933-35.3,0-48.766l-18.226,9.113
			C303.617,229.666,303.617,243.34,286.75,251.773z"/>
		<path style="fill:#C5DAE8;" d="M300.802,217.581c1.946,1.125,3.732,2.334,5.309,3.592l-1.981,0.621
			c-1.514-1.208-3.229-2.368-5.097-3.448L300.802,217.581z"/>
		<path style="fill:#C5DAE8;" d="M308.747,223.51c1.34,1.328,2.483,2.719,3.397,4.133l-2.225,0.359
			c-0.877-1.357-1.973-2.691-3.26-3.966L308.747,223.51z"/>
		<path style="fill:#C5DAE8;" d="M313.555,230.231c0.646,1.447,1.074,2.934,1.272,4.422l-2.333,0.078
			c-0.19-1.428-0.601-2.856-1.221-4.245L313.555,230.231z"/>
		<path style="fill:#C5DAE8;" d="M312.602,237.306l2.337,0.028c-0.072,1.49-0.375,2.986-0.899,4.445l-2.302-0.207
			C312.243,240.172,312.533,238.737,312.602,237.306z"/>
		<path style="fill:#C5DAE8;" d="M310.595,244.083l2.253,0.312c-0.795,1.432-1.821,2.847-3.05,4.203l-2.13-0.482
			C308.848,246.814,309.833,245.457,310.595,244.083z"/>
		<path style="fill:#C5DAE8;" d="M305.329,250.41l2.032,0.579c-1.47,1.29-3.154,2.536-5.006,3.702l-1.831-0.727
			C302.301,252.844,303.918,251.649,305.329,250.41z"/>
	</g>
	<g>
		<path style="fill:#99AFBF;" d="M171.277,284.12l-1.818,0.909c16.867,8.434,44.215,8.434,61.082,0l-1.818-0.909
			C212.885,292.039,187.115,292.039,171.277,284.12z"/>
		<path style="fill:#99AFBF;" d="M151.233,294.142l-1.818,0.909c6.828,3.414,14.791,6.058,23.666,7.857
			c8.572,1.738,17.628,2.619,26.919,2.619c9.29,0,18.347-0.881,26.918-2.619c8.876-1.8,16.838-4.443,23.666-7.857l-1.818-0.909
			C221.833,307.609,178.166,307.609,151.233,294.142z"/>
		<path style="fill:#4C5D6B;" d="M169.459,285.029l-18.226,9.113c26.933,13.466,70.6,13.466,97.533,0l-18.225-9.113
			C213.674,293.463,186.326,293.463,169.459,285.029z"/>
		<path style="fill:#C5DAE8;" d="M237.844,292.056c-2.251,0.973-4.668,1.866-7.185,2.655l-1.242-0.991
			c2.416-0.757,4.736-1.614,6.897-2.548L237.844,292.056z"/>
		<path style="fill:#C5DAE8;" d="M225.986,296.028c-2.657,0.67-5.438,1.242-8.267,1.698L217,296.614
			c2.714-0.438,5.383-0.987,7.932-1.63L225.986,296.028z"/>
		<path style="fill:#C5DAE8;" d="M212.543,298.432c-2.893,0.323-5.868,0.537-8.843,0.636l-0.155-1.166
			c2.857-0.095,5.713-0.3,8.49-0.61L212.543,298.432z"/>
		<path style="fill:#C5DAE8;" d="M198.393,297.956l-0.057,1.169c-2.98-0.036-5.971-0.187-8.89-0.449l0.413-1.151
			C192.661,297.776,195.532,297.921,198.393,297.956z"/>
		<path style="fill:#C5DAE8;" d="M184.84,296.952l-0.625,1.126c-2.865-0.397-5.693-0.91-8.406-1.525l0.965-1.065
			C179.377,296.079,182.091,296.571,184.84,296.952z"/>
		<path style="fill:#C5DAE8;" d="M172.186,294.319l-1.157,1.016c-2.581-0.735-5.072-1.577-7.404-2.503l1.454-0.916
			C167.317,292.805,169.708,293.613,172.186,294.319z"/>
	</g>
	<g>
		<path style="fill:#99AFBF;" d="M111.933,222.945l-1.818-0.909c-16.867,8.434-16.867,22.107,0,30.541l1.818-0.909
			C96.095,243.749,96.095,230.864,111.933,222.945z"/>
		<path style="fill:#99AFBF;" d="M91.889,212.923l-1.818-0.909c-6.828,3.414-12.115,7.395-15.715,11.833
			c-3.476,4.286-5.238,8.814-5.238,13.459c0,4.645,1.763,9.173,5.239,13.459c3.599,4.438,8.886,8.419,15.714,11.833l1.818-0.909
			C64.956,248.223,64.956,226.389,91.889,212.923z"/>
		<path style="fill:#4C5D6B;" d="M110.115,222.036l-18.226-9.113c-26.933,13.466-26.933,35.3,0,48.766l18.226-9.113
			C93.247,244.143,93.247,230.469,110.115,222.036z"/>
		<path style="fill:#C5DAE8;" d="M96.062,256.228c-1.946-1.125-3.732-2.334-5.309-3.592l1.981-0.621
			c1.514,1.208,3.229,2.368,5.097,3.448L96.062,256.228z"/>
		<path style="fill:#C5DAE8;" d="M88.118,250.299c-1.34-1.328-2.483-2.719-3.397-4.133l2.225-0.359
			c0.877,1.357,1.973,2.691,3.26,3.966L88.118,250.299z"/>
		<path style="fill:#C5DAE8;" d="M83.31,243.577c-0.646-1.446-1.074-2.934-1.272-4.422l2.333-0.078
			c0.19,1.428,0.601,2.856,1.221,4.245L83.31,243.577z"/>
		<path style="fill:#C5DAE8;" d="M84.262,236.503l-2.337-0.028c0.072-1.49,0.375-2.986,0.899-4.445l2.301,0.207
			C84.622,233.637,84.332,235.072,84.262,236.503z"/>
		<path style="fill:#C5DAE8;" d="M86.269,229.726l-2.253-0.312c0.795-1.432,1.821-2.847,3.05-4.203l2.13,0.482
			C88.016,226.995,87.032,228.352,86.269,229.726z"/>
		<path style="fill:#C5DAE8;" d="M91.536,223.399l-2.032-0.579c1.47-1.29,3.155-2.536,5.006-3.702l1.831,0.727
			C94.564,220.964,92.947,222.16,91.536,223.399z"/>
	</g>
</g>
<g>
	<polygon style="fill:#99AFBF;" points="318.623,301.691 294.67,289.715 243.897,315.102 267.849,327.078 	"/>
	<polygon style="fill:#4C5D6B;" points="265.783,326.045 316.556,300.658 296.737,290.748 245.963,316.135 	"/>
	<g>
		<polygon style="fill:#C5DAE8;" points="303.625,296.714 298.577,299.238 299.576,299.738 304.624,297.214 		"/>
		<polygon style="fill:#C5DAE8;" points="295.321,300.866 290.273,303.39 291.273,303.89 296.32,301.366 		"/>
		<polygon style="fill:#C5DAE8;" points="287.017,305.018 281.969,307.542 282.969,308.042 288.016,305.518 		"/>
		<polygon style="fill:#C5DAE8;" points="278.713,309.17 273.666,311.694 274.665,312.194 279.712,309.67 		"/>
		<polygon style="fill:#C5DAE8;" points="270.409,313.322 265.362,315.846 266.361,316.345 271.408,313.822 		"/>
		<polygon style="fill:#C5DAE8;" points="262.105,317.474 257.058,319.998 258.057,320.497 263.104,317.974 		"/>
	</g>
</g>
<g>
	<polygon style="fill:#99AFBF;" points="393.021,301.691 369.068,289.715 318.294,315.102 342.247,327.078 	"/>
	<polygon style="fill:#4C5D6B;" points="340.181,326.045 390.954,300.658 371.135,290.748 320.361,316.135 	"/>
	<g>
		<polygon style="fill:#C5DAE8;" points="378.023,296.714 372.975,299.238 373.974,299.738 379.022,297.214 		"/>
		<polygon style="fill:#C5DAE8;" points="369.719,300.866 364.671,303.39 365.671,303.89 370.718,301.366 		"/>
		<polygon style="fill:#C5DAE8;" points="344.807,313.322 339.76,315.846 340.759,316.345 345.806,313.822 		"/>
		<polygon style="fill:#C5DAE8;" points="336.503,317.474 331.456,319.998 332.455,320.497 337.503,317.974 		"/>
	</g>
	<g>
		<polygon style="fill:#C5DAE8;" points="353.272,312.424 363.712,307.204 362.256,306.476 351.816,311.696 		"/>
		<polygon style="fill:#C5DAE8;" points="358.022,314.798 368.461,309.579 367.005,308.851 356.566,314.07 		"/>
		<polygon style="fill:#C5DAE8;" points="348.791,310.183 359.231,304.963 357.775,304.235 347.335,309.455 		"/>
		<polygon style="fill:#C5DAE8;" points="344.31,307.943 354.749,302.723 353.293,301.995 342.854,307.215 		"/>
	</g>
</g>
</svg>
